<svg width="179" height="30" viewBox="0 0 179 30" fill="none" xmlns="http://www.w3.org/2000/svg">
<mask id="mask0" mask-type="alpha" maskUnits="userSpaceOnUse" x="0" y="0" width="21" height="30">
<path fill-rule="evenodd" clip-rule="evenodd" d="M0 0H20.8826V30H0V0Z" fill="white"/>
</mask>
<g mask="url(#mask0)">
<path fill-rule="evenodd" clip-rule="evenodd" d="M17.8688 0.739053C17.192 0.513436 16.5152 0.287819 15.8568 0.0622016C15.0295 -0.238534 14.2209 0.607465 14.2587 1.71664C14.3338 3.82205 14.409 5.90855 14.4841 8.01396C14.503 8.70946 14.1644 9.34875 13.6379 9.61193C12.5851 10.1194 11.5132 10.6082 10.4413 11.097C9.36938 10.6271 8.29773 10.1194 7.24472 9.61193C6.69931 9.34875 6.37983 8.70946 6.39875 8.01396C6.47389 5.90855 6.54903 3.82205 6.62417 1.71664C6.662 0.588554 5.85333 -0.238534 5.02601 0.0622016C4.34897 0.287819 3.69085 0.532347 3.01407 0.739053C2.46865 0.927111 2.05512 1.52858 1.99864 2.26164C1.81053 4.74317 1.60376 7.22443 1.41565 9.68705C1.35916 10.3825 1.6789 11.0218 2.2054 11.3037C3.39003 11.924 3.27732 13.9543 1.97972 14.4242C1.397 14.6312 0.964289 15.2138 0.907803 15.9093C0.607246 19.6877 0.306164 23.4852 0.00534391 27.2637C-0.0511419 27.9967 0.343733 28.6736 1.02078 28.9367C1.82918 29.2561 2.65676 29.5758 3.48408 29.8954C4.51843 30.2902 5.62765 29.5193 5.66522 28.3915C5.77793 24.9891 5.90956 21.5865 6.02253 18.1652C6.04118 17.4697 6.45524 16.8682 7.03796 16.6426C8.18502 16.1913 9.31342 15.7401 10.4413 15.2513C11.5694 15.7215 12.6978 16.1913 13.8449 16.6426C14.4276 16.8682 14.8417 17.4697 14.8603 18.1652C14.9733 21.5678 15.1047 24.9702 15.2176 28.3915C15.2552 29.5193 16.3644 30.2713 17.3988 29.8954C18.2261 29.5758 19.0537 29.2561 19.8621 28.9367C20.5202 28.6736 20.934 27.9967 20.8775 27.2637C20.5767 23.4852 20.2756 19.6877 19.9751 15.9093C19.9186 15.2138 19.505 14.6312 18.9031 14.4242C17.6055 13.9733 17.4928 11.924 18.6775 11.3037C19.2226 11.0218 19.5237 10.3639 19.4672 9.68705C19.2791 7.20578 19.0723 4.72426 18.8842 2.26164C18.8277 1.52858 18.4142 0.908201 17.8688 0.739053" fill="#6309FF"/>
</g>
<path fill-rule="evenodd" clip-rule="evenodd" d="M35.9268 6.00333H39.7673V11.8985H45.9358V6.00333H49.7766V21.0128H45.9358V14.9043H39.7673V21.0128H35.9268V6.00333Z" fill="#6309FF"/>
<path fill-rule="evenodd" clip-rule="evenodd" d="M55.1016 6.00333H58.9229V14.9818C58.9229 15.8738 59.1751 16.5719 59.6601 17.0762C60.1448 17.5805 60.8431 17.8323 61.7354 17.8323C62.6081 17.8323 63.3065 17.5805 63.8109 17.0956C64.3153 16.6108 64.5673 15.8932 64.5673 14.9818V6.00333H68.408V15.2145C68.408 17.0956 67.8067 18.5693 66.5847 19.636C65.3628 20.7023 63.7528 21.2261 61.7162 21.2261C60.5912 21.2261 59.6018 21.0903 58.7676 20.7992C57.914 20.5085 57.216 20.1014 56.6921 19.5582C56.1685 19.0153 55.761 18.3947 55.509 17.6774C55.2568 16.9598 55.1207 16.1259 55.1207 15.2145V6.00333H55.1016Z" fill="#6309FF"/>
<path fill-rule="evenodd" clip-rule="evenodd" d="M73.7246 6.00333H78.4382L81.7164 13.4886H81.8717L85.0917 6.00333H89.8244V21.0128H86.1V15.3503L86.3136 11.2973H86.1583L81.7939 20.7992L77.4298 11.2973H77.2551L77.4684 15.3889V21.0128H73.7246V6.00333Z" fill="#6309FF"/>
<path fill-rule="evenodd" clip-rule="evenodd" d="M102.939 15.7972L102.493 14.401L101.29 10.0378H101.155L99.8551 14.401L99.4088 15.7972H102.939ZM98.9036 6.00333H103.384L108.815 21.0128H104.587L103.869 18.7437H98.4572L97.7203 21.0128H93.7437L98.9036 6.00333Z" fill="#6309FF"/>
<mask id="mask1" mask-type="alpha" maskUnits="userSpaceOnUse" x="112" y="6" width="14" height="16">
<path fill-rule="evenodd" clip-rule="evenodd" d="M112.48 6.00333H126V21.0128H112.48V6.00333Z" fill="white"/>
</mask>
<g mask="url(#mask1)">
<path fill-rule="evenodd" clip-rule="evenodd" d="M112.48 6.00333H116.883L122.237 15.5441H122.392L122.179 11.3168V6.00333H126V21.0128H121.616L116.301 11.5689H116.146L116.34 15.6605V21.0128H112.499V6.00333H112.48Z" fill="#6309FF"/>
</g>
<path d="M140.078 21H141.982L143.262 17.5625H149.961L151.24 21H153.203L147.656 6.41992H145.576L140.078 21ZM143.818 16.0586L144.736 13.5586L146.582 8.25586H146.68L148.477 13.5586L149.404 16.0586H143.818Z" fill="#6309FF"/>
<path d="M155.239 24.3398H156.977V19.0566H157.104C157.358 19.7207 157.807 20.2383 158.442 20.6191C159.077 21.0098 159.819 21.1953 160.659 21.1953C162.016 21.1953 163.11 20.707 163.94 19.7109C164.761 18.7246 165.18 17.3965 165.18 15.7168C165.18 14.0859 164.77 12.7871 163.96 11.8105C163.149 10.8438 162.065 10.3555 160.698 10.3555C159.839 10.3555 159.096 10.5508 158.462 10.9316C157.817 11.3125 157.368 11.8105 157.104 12.4355H156.977L156.821 10.5605H155.239V24.3398ZM156.977 16.459V15.1211C156.977 14.2129 157.28 13.4512 157.905 12.8262C158.53 12.2109 159.311 11.8984 160.259 11.8984C161.216 11.8984 161.987 12.2305 162.554 12.8945C163.12 13.5586 163.403 14.4961 163.403 15.7168C163.403 16.9277 163.12 17.8848 162.563 18.6074C162.007 19.3301 161.225 19.6816 160.22 19.6816C159.282 19.6816 158.501 19.3887 157.895 18.7832C157.28 18.1777 156.977 17.4062 156.977 16.459Z" fill="#6309FF"/>
<path d="M168.017 24.3398H169.755V19.0566H169.882C170.136 19.7207 170.586 20.2383 171.22 20.6191C171.855 21.0098 172.597 21.1953 173.437 21.1953C174.795 21.1953 175.888 20.707 176.718 19.7109C177.539 18.7246 177.959 17.3965 177.959 15.7168C177.959 14.0859 177.548 12.7871 176.738 11.8105C175.927 10.8438 174.843 10.3555 173.476 10.3555C172.617 10.3555 171.875 10.5508 171.24 10.9316C170.595 11.3125 170.146 11.8105 169.882 12.4355H169.755L169.599 10.5605H168.017V24.3398ZM169.755 16.459V15.1211C169.755 14.2129 170.058 13.4512 170.683 12.8262C171.308 12.2109 172.089 11.8984 173.037 11.8984C173.994 11.8984 174.765 12.2305 175.332 12.8945C175.898 13.5586 176.181 14.4961 176.181 15.7168C176.181 16.9277 175.898 17.8848 175.341 18.6074C174.785 19.3301 174.004 19.6816 172.998 19.6816C172.06 19.6816 171.279 19.3887 170.673 18.7832C170.058 18.1777 169.755 17.4062 169.755 16.459Z" fill="#6309FF"/>
</svg>
