<svg width="1800" height="638" viewBox="0 0 1800 638" fill="none" xmlns="http://www.w3.org/2000/svg">
<circle cx="616.271" cy="225.271" r="0.92931" transform="rotate(-180 616.271 225.271)" fill="white"/>
<circle cx="647.867" cy="225.271" r="0.92931" transform="rotate(-180 647.867 225.271)" fill="white"/>
<circle cx="679.464" cy="225.271" r="0.92931" transform="rotate(-180 679.464 225.271)" fill="white"/>
<circle cx="711.06" cy="225.271" r="0.92931" transform="rotate(-180 711.06 225.271)" fill="white"/>
<circle cx="742.657" cy="225.271" r="0.92931" transform="rotate(-180 742.657 225.271)" fill="white"/>
<circle cx="774.254" cy="225.271" r="0.92931" transform="rotate(-180 774.254 225.271)" fill="white"/>
<circle cx="805.85" cy="225.271" r="0.92931" transform="rotate(-180 805.85 225.271)" fill="white"/>
<circle cx="837.447" cy="225.271" r="0.92931" transform="rotate(-180 837.447 225.271)" fill="white"/>
<circle cx="869.043" cy="225.271" r="0.92931" transform="rotate(-180 869.043 225.271)" fill="white"/>
<circle cx="900.64" cy="225.271" r="0.92931" transform="rotate(-180 900.64 225.271)" fill="white"/>
<circle cx="932.236" cy="225.271" r="0.92931" transform="rotate(-180 932.236 225.271)" fill="white"/>
<circle cx="963.833" cy="225.271" r="0.92931" transform="rotate(-180 963.833 225.271)" fill="white"/>
<circle cx="995.429" cy="225.271" r="0.92931" transform="rotate(-180 995.429 225.271)" fill="white"/>
<ellipse cx="1027.03" cy="225.271" rx="0.92926" ry="0.929314" transform="rotate(-180 1027.03 225.271)" fill="white"/>
<circle cx="1058.62" cy="225.271" r="0.92931" transform="rotate(-180 1058.62 225.271)" fill="white"/>
<circle cx="1090.22" cy="225.271" r="0.92931" transform="rotate(-180 1090.22 225.271)" fill="white"/>
<ellipse cx="1121.82" cy="225.271" rx="0.92926" ry="0.929314" transform="rotate(-180 1121.82 225.271)" fill="white"/>
<circle cx="1153.41" cy="225.271" r="0.92931" transform="rotate(-180 1153.41 225.271)" fill="white"/>
<circle cx="616.271" cy="225.271" r="0.92931" transform="rotate(-180 616.271 225.271)" fill="white"/>
<circle cx="647.867" cy="225.271" r="0.92931" transform="rotate(-180 647.867 225.271)" fill="white"/>
<circle cx="679.464" cy="225.271" r="0.92931" transform="rotate(-180 679.464 225.271)" fill="white"/>
<circle cx="711.06" cy="225.271" r="0.92931" transform="rotate(-180 711.06 225.271)" fill="white"/>
<circle cx="742.657" cy="225.271" r="0.92931" transform="rotate(-180 742.657 225.271)" fill="white"/>
<circle cx="774.254" cy="225.271" r="0.92931" transform="rotate(-180 774.254 225.271)" fill="white"/>
<circle cx="805.85" cy="225.271" r="0.92931" transform="rotate(-180 805.85 225.271)" fill="white"/>
<circle cx="837.447" cy="225.271" r="0.92931" transform="rotate(-180 837.447 225.271)" fill="white"/>
<circle cx="869.043" cy="225.271" r="0.92931" transform="rotate(-180 869.043 225.271)" fill="white"/>
<circle cx="900.64" cy="225.271" r="0.92931" transform="rotate(-180 900.64 225.271)" fill="white"/>
<circle cx="932.236" cy="225.271" r="0.92931" transform="rotate(-180 932.236 225.271)" fill="white"/>
<circle cx="963.833" cy="225.271" r="0.92931" transform="rotate(-180 963.833 225.271)" fill="white"/>
<circle cx="995.429" cy="225.271" r="0.92931" transform="rotate(-180 995.429 225.271)" fill="white"/>
<ellipse cx="1027.03" cy="225.271" rx="0.92926" ry="0.929314" transform="rotate(-180 1027.03 225.271)" fill="white"/>
<circle cx="1058.62" cy="225.271" r="0.92931" transform="rotate(-180 1058.62 225.271)" fill="white"/>
<circle cx="1090.22" cy="225.271" r="0.92931" transform="rotate(-180 1090.22 225.271)" fill="white"/>
<ellipse cx="1121.82" cy="225.271" rx="0.92926" ry="0.929314" transform="rotate(-180 1121.82 225.271)" fill="white"/>
<circle cx="1153.41" cy="225.271" r="0.92931" transform="rotate(-180 1153.41 225.271)" fill="white"/>
<circle cx="616.271" cy="256.868" r="0.92931" transform="rotate(-180 616.271 256.868)" fill="white"/>
<circle cx="647.867" cy="256.868" r="0.92931" transform="rotate(-180 647.867 256.868)" fill="white"/>
<circle cx="679.464" cy="256.868" r="0.92931" transform="rotate(-180 679.464 256.868)" fill="white"/>
<circle cx="711.06" cy="256.868" r="0.92931" transform="rotate(-180 711.06 256.868)" fill="white"/>
<circle cx="742.657" cy="256.868" r="0.92931" transform="rotate(-180 742.657 256.868)" fill="white"/>
<circle cx="774.254" cy="256.868" r="0.92931" transform="rotate(-180 774.254 256.868)" fill="white"/>
<circle cx="805.85" cy="256.868" r="0.92931" transform="rotate(-180 805.85 256.868)" fill="white"/>
<circle cx="837.447" cy="256.868" r="0.92931" transform="rotate(-180 837.447 256.868)" fill="white"/>
<circle cx="869.043" cy="256.868" r="0.92931" transform="rotate(-180 869.043 256.868)" fill="white"/>
<circle cx="900.64" cy="256.868" r="0.92931" transform="rotate(-180 900.64 256.868)" fill="white"/>
<circle cx="932.236" cy="256.868" r="0.92931" transform="rotate(-180 932.236 256.868)" fill="white"/>
<circle cx="963.833" cy="256.868" r="0.92931" transform="rotate(-180 963.833 256.868)" fill="white"/>
<circle cx="995.429" cy="256.868" r="0.92931" transform="rotate(-180 995.429 256.868)" fill="white"/>
<circle cx="1027.03" cy="256.868" r="0.92931" transform="rotate(-180 1027.03 256.868)" fill="white"/>
<circle cx="1058.62" cy="256.868" r="0.92931" transform="rotate(-180 1058.62 256.868)" fill="white"/>
<circle cx="1090.22" cy="256.868" r="0.92931" transform="rotate(-180 1090.22 256.868)" fill="white"/>
<circle cx="1121.82" cy="256.868" r="0.92931" transform="rotate(-180 1121.82 256.868)" fill="white"/>
<circle cx="1153.41" cy="256.868" r="0.92931" transform="rotate(-180 1153.41 256.868)" fill="white"/>
<circle cx="616.271" cy="288.464" r="0.92931" transform="rotate(-180 616.271 288.464)" fill="white"/>
<circle cx="647.867" cy="288.464" r="0.92931" transform="rotate(-180 647.867 288.464)" fill="white"/>
<circle cx="679.464" cy="288.464" r="0.92931" transform="rotate(-180 679.464 288.464)" fill="white"/>
<circle cx="711.06" cy="288.464" r="0.92931" transform="rotate(-180 711.06 288.464)" fill="white"/>
<circle cx="742.657" cy="288.464" r="0.92931" transform="rotate(-180 742.657 288.464)" fill="white"/>
<circle cx="774.254" cy="288.464" r="0.92931" transform="rotate(-180 774.254 288.464)" fill="white"/>
<circle cx="805.85" cy="288.464" r="0.92931" transform="rotate(-180 805.85 288.464)" fill="white"/>
<circle cx="837.447" cy="288.464" r="0.92931" transform="rotate(-180 837.447 288.464)" fill="white"/>
<circle cx="869.043" cy="288.464" r="0.92931" transform="rotate(-180 869.043 288.464)" fill="white"/>
<circle cx="900.64" cy="288.464" r="0.92931" transform="rotate(-180 900.64 288.464)" fill="white"/>
<circle cx="932.236" cy="288.464" r="0.92931" transform="rotate(-180 932.236 288.464)" fill="white"/>
<circle cx="963.833" cy="288.464" r="0.92931" transform="rotate(-180 963.833 288.464)" fill="white"/>
<circle cx="995.43" cy="288.464" r="0.92931" transform="rotate(-180 995.43 288.464)" fill="white"/>
<ellipse cx="1027.03" cy="288.464" rx="0.92926" ry="0.929306" transform="rotate(-180 1027.03 288.464)" fill="white"/>
<circle cx="1058.62" cy="288.464" r="0.92931" transform="rotate(-180 1058.62 288.464)" fill="white"/>
<circle cx="1090.22" cy="288.464" r="0.92931" transform="rotate(-180 1090.22 288.464)" fill="white"/>
<ellipse cx="1121.82" cy="288.464" rx="0.92926" ry="0.929306" transform="rotate(-180 1121.82 288.464)" fill="white"/>
<circle cx="1153.41" cy="288.464" r="0.92931" transform="rotate(-180 1153.41 288.464)" fill="white"/>
<circle cx="616.271" cy="320.061" r="0.92931" transform="rotate(-180 616.271 320.061)" fill="white"/>
<circle cx="647.867" cy="320.061" r="0.92931" transform="rotate(-180 647.867 320.061)" fill="white"/>
<circle cx="679.464" cy="320.061" r="0.92931" transform="rotate(-180 679.464 320.061)" fill="white"/>
<circle cx="711.06" cy="320.061" r="0.92931" transform="rotate(-180 711.06 320.061)" fill="white"/>
<circle cx="742.657" cy="320.061" r="0.92931" transform="rotate(-180 742.657 320.061)" fill="white"/>
<circle cx="774.254" cy="320.061" r="0.92931" transform="rotate(-180 774.254 320.061)" fill="white"/>
<circle cx="805.85" cy="320.061" r="0.92931" transform="rotate(-180 805.85 320.061)" fill="white"/>
<circle cx="837.447" cy="320.061" r="0.92931" transform="rotate(-180 837.447 320.061)" fill="white"/>
<circle cx="869.043" cy="320.061" r="0.92931" transform="rotate(-180 869.043 320.061)" fill="white"/>
<circle cx="900.64" cy="320.061" r="0.92931" transform="rotate(-180 900.64 320.061)" fill="white"/>
<circle cx="932.236" cy="320.061" r="0.92931" transform="rotate(-180 932.236 320.061)" fill="white"/>
<circle cx="963.833" cy="320.061" r="0.92931" transform="rotate(-180 963.833 320.061)" fill="white"/>
<circle cx="995.43" cy="320.061" r="0.92931" transform="rotate(-180 995.43 320.061)" fill="white"/>
<ellipse cx="1027.03" cy="320.061" rx="0.92926" ry="0.929321" transform="rotate(-180 1027.03 320.061)" fill="white"/>
<circle cx="1058.62" cy="320.061" r="0.92931" transform="rotate(-180 1058.62 320.061)" fill="white"/>
<circle cx="1090.22" cy="320.061" r="0.92931" transform="rotate(-180 1090.22 320.061)" fill="white"/>
<ellipse cx="1121.82" cy="320.061" rx="0.92926" ry="0.929321" transform="rotate(-180 1121.82 320.061)" fill="white"/>
<circle cx="1153.41" cy="320.061" r="0.92931" transform="rotate(-180 1153.41 320.061)" fill="white"/>
<circle cx="616.271" cy="351.657" r="0.92931" transform="rotate(-180 616.271 351.657)" fill="white"/>
<circle cx="647.867" cy="351.657" r="0.92931" transform="rotate(-180 647.867 351.657)" fill="white"/>
<circle cx="679.464" cy="351.657" r="0.92931" transform="rotate(-180 679.464 351.657)" fill="white"/>
<circle cx="711.06" cy="351.657" r="0.92931" transform="rotate(-180 711.06 351.657)" fill="white"/>
<circle cx="742.657" cy="351.657" r="0.92931" transform="rotate(-180 742.657 351.657)" fill="white"/>
<circle cx="774.254" cy="351.657" r="0.92931" transform="rotate(-180 774.254 351.657)" fill="white"/>
<circle cx="805.85" cy="351.657" r="0.92931" transform="rotate(-180 805.85 351.657)" fill="white"/>
<circle cx="837.447" cy="351.657" r="0.92931" transform="rotate(-180 837.447 351.657)" fill="white"/>
<circle cx="869.043" cy="351.657" r="0.92931" transform="rotate(-180 869.043 351.657)" fill="white"/>
<circle cx="900.64" cy="351.657" r="0.92931" transform="rotate(-180 900.64 351.657)" fill="white"/>
<circle cx="932.236" cy="351.657" r="0.92931" transform="rotate(-180 932.236 351.657)" fill="white"/>
<circle cx="963.833" cy="351.657" r="0.92931" transform="rotate(-180 963.833 351.657)" fill="white"/>
<circle cx="995.429" cy="351.657" r="0.92931" transform="rotate(-180 995.429 351.657)" fill="white"/>
<ellipse cx="1027.03" cy="351.657" rx="0.92926" ry="0.929306" transform="rotate(-180 1027.03 351.657)" fill="white"/>
<circle cx="1058.62" cy="351.657" r="0.92931" transform="rotate(-180 1058.62 351.657)" fill="white"/>
<circle cx="1090.22" cy="351.657" r="0.92931" transform="rotate(-180 1090.22 351.657)" fill="white"/>
<ellipse cx="1121.82" cy="351.657" rx="0.92926" ry="0.929306" transform="rotate(-180 1121.82 351.657)" fill="white"/>
<circle cx="1153.41" cy="351.657" r="0.92931" transform="rotate(-180 1153.41 351.657)" fill="white"/>
<circle cx="616.271" cy="383.254" r="0.92931" transform="rotate(-180 616.271 383.254)" fill="white"/>
<circle cx="647.867" cy="383.254" r="0.92931" transform="rotate(-180 647.867 383.254)" fill="white"/>
<circle cx="679.464" cy="383.254" r="0.92931" transform="rotate(-180 679.464 383.254)" fill="white"/>
<circle cx="711.06" cy="383.254" r="0.92931" transform="rotate(-180 711.06 383.254)" fill="white"/>
<circle cx="742.657" cy="383.254" r="0.92931" transform="rotate(-180 742.657 383.254)" fill="white"/>
<circle cx="774.254" cy="383.254" r="0.92931" transform="rotate(-180 774.254 383.254)" fill="white"/>
<circle cx="805.85" cy="383.254" r="0.92931" transform="rotate(-180 805.85 383.254)" fill="white"/>
<circle cx="837.447" cy="383.254" r="0.92931" transform="rotate(-180 837.447 383.254)" fill="white"/>
<circle cx="869.043" cy="383.254" r="0.92931" transform="rotate(-180 869.043 383.254)" fill="white"/>
<circle cx="900.64" cy="383.254" r="0.92931" transform="rotate(-180 900.64 383.254)" fill="white"/>
<circle cx="932.236" cy="383.254" r="0.92931" transform="rotate(-180 932.236 383.254)" fill="white"/>
<circle cx="963.833" cy="383.254" r="0.92931" transform="rotate(-180 963.833 383.254)" fill="white"/>
<circle cx="995.429" cy="383.254" r="0.92931" transform="rotate(-180 995.429 383.254)" fill="white"/>
<ellipse cx="1027.03" cy="383.254" rx="0.92926" ry="0.929306" transform="rotate(-180 1027.03 383.254)" fill="white"/>
<circle cx="1058.62" cy="383.254" r="0.92931" transform="rotate(-180 1058.62 383.254)" fill="white"/>
<circle cx="1090.22" cy="383.254" r="0.92931" transform="rotate(-180 1090.22 383.254)" fill="white"/>
<ellipse cx="1121.82" cy="383.254" rx="0.92926" ry="0.929306" transform="rotate(-180 1121.82 383.254)" fill="white"/>
<circle cx="1153.41" cy="383.254" r="0.92931" transform="rotate(-180 1153.41 383.254)" fill="white"/>
<circle cx="616.271" cy="414.851" r="0.92931" transform="rotate(-180 616.271 414.851)" fill="white"/>
<circle cx="647.867" cy="414.851" r="0.92931" transform="rotate(-180 647.867 414.851)" fill="white"/>
<circle cx="679.464" cy="414.851" r="0.92931" transform="rotate(-180 679.464 414.851)" fill="white"/>
<circle cx="711.06" cy="414.851" r="0.92931" transform="rotate(-180 711.06 414.851)" fill="white"/>
<circle cx="742.657" cy="414.851" r="0.92931" transform="rotate(-180 742.657 414.851)" fill="white"/>
<circle cx="774.254" cy="414.851" r="0.92931" transform="rotate(-180 774.254 414.851)" fill="white"/>
<circle cx="805.85" cy="414.851" r="0.92931" transform="rotate(-180 805.85 414.851)" fill="white"/>
<circle cx="837.447" cy="414.851" r="0.92931" transform="rotate(-180 837.447 414.851)" fill="white"/>
<circle cx="869.043" cy="414.851" r="0.92931" transform="rotate(-180 869.043 414.851)" fill="white"/>
<circle cx="900.64" cy="414.851" r="0.92931" transform="rotate(-180 900.64 414.851)" fill="white"/>
<circle cx="932.236" cy="414.851" r="0.92931" transform="rotate(-180 932.236 414.851)" fill="white"/>
<circle cx="963.833" cy="414.851" r="0.92931" transform="rotate(-180 963.833 414.851)" fill="white"/>
<circle cx="995.429" cy="414.851" r="0.92931" transform="rotate(-180 995.429 414.851)" fill="white"/>
<ellipse cx="1027.03" cy="414.851" rx="0.92926" ry="0.929306" transform="rotate(-180 1027.03 414.851)" fill="white"/>
<circle cx="1058.62" cy="414.851" r="0.92931" transform="rotate(-180 1058.62 414.851)" fill="white"/>
<circle cx="1090.22" cy="414.851" r="0.92931" transform="rotate(-180 1090.22 414.851)" fill="white"/>
<ellipse cx="1121.82" cy="414.851" rx="0.92926" ry="0.929306" transform="rotate(-180 1121.82 414.851)" fill="white"/>
<circle cx="1153.41" cy="414.851" r="0.92931" transform="rotate(-180 1153.41 414.851)" fill="white"/>
<circle cx="616.271" cy="446.447" r="0.92931" transform="rotate(-180 616.271 446.447)" fill="white"/>
<circle cx="647.867" cy="446.447" r="0.92931" transform="rotate(-180 647.867 446.447)" fill="white"/>
<circle cx="679.464" cy="446.447" r="0.92931" transform="rotate(-180 679.464 446.447)" fill="white"/>
<circle cx="711.06" cy="446.447" r="0.92931" transform="rotate(-180 711.06 446.447)" fill="white"/>
<circle cx="742.657" cy="446.447" r="0.92931" transform="rotate(-180 742.657 446.447)" fill="white"/>
<circle cx="774.254" cy="446.447" r="0.92931" transform="rotate(-180 774.254 446.447)" fill="white"/>
<circle cx="805.85" cy="446.447" r="0.92931" transform="rotate(-180 805.85 446.447)" fill="white"/>
<circle cx="837.447" cy="446.447" r="0.92931" transform="rotate(-180 837.447 446.447)" fill="white"/>
<circle cx="869.043" cy="446.447" r="0.92931" transform="rotate(-180 869.043 446.447)" fill="white"/>
<circle cx="900.64" cy="446.447" r="0.92931" transform="rotate(-180 900.64 446.447)" fill="white"/>
<circle cx="932.236" cy="446.447" r="0.92931" transform="rotate(-180 932.236 446.447)" fill="white"/>
<circle cx="963.833" cy="446.447" r="0.92931" transform="rotate(-180 963.833 446.447)" fill="white"/>
<circle cx="995.43" cy="446.447" r="0.92931" transform="rotate(-180 995.43 446.447)" fill="white"/>
<ellipse cx="1027.03" cy="446.447" rx="0.92926" ry="0.929306" transform="rotate(-180 1027.03 446.447)" fill="white"/>
<circle cx="1058.62" cy="446.447" r="0.92931" transform="rotate(-180 1058.62 446.447)" fill="white"/>
<circle cx="1090.22" cy="446.447" r="0.92931" transform="rotate(-180 1090.22 446.447)" fill="white"/>
<ellipse cx="1121.82" cy="446.447" rx="0.92926" ry="0.929306" transform="rotate(-180 1121.82 446.447)" fill="white"/>
<circle cx="1153.41" cy="446.447" r="0.92931" transform="rotate(-180 1153.41 446.447)" fill="white"/>
<circle cx="616.271" cy="478.043" r="0.92931" transform="rotate(-180 616.271 478.043)" fill="white"/>
<circle cx="647.867" cy="478.043" r="0.92931" transform="rotate(-180 647.867 478.043)" fill="white"/>
<circle cx="679.464" cy="478.043" r="0.92931" transform="rotate(-180 679.464 478.043)" fill="white"/>
<circle cx="711.06" cy="478.043" r="0.92931" transform="rotate(-180 711.06 478.043)" fill="white"/>
<circle cx="742.657" cy="478.043" r="0.92931" transform="rotate(-180 742.657 478.043)" fill="white"/>
<circle cx="774.254" cy="478.043" r="0.92931" transform="rotate(-180 774.254 478.043)" fill="white"/>
<circle cx="805.85" cy="478.043" r="0.92931" transform="rotate(-180 805.85 478.043)" fill="white"/>
<circle cx="837.447" cy="478.043" r="0.92931" transform="rotate(-180 837.447 478.043)" fill="white"/>
<circle cx="869.043" cy="478.043" r="0.92931" transform="rotate(-180 869.043 478.043)" fill="white"/>
<circle cx="900.64" cy="478.043" r="0.92931" transform="rotate(-180 900.64 478.043)" fill="white"/>
<circle cx="932.236" cy="478.043" r="0.92931" transform="rotate(-180 932.236 478.043)" fill="white"/>
<circle cx="963.833" cy="478.043" r="0.92931" transform="rotate(-180 963.833 478.043)" fill="white"/>
<circle cx="995.429" cy="478.043" r="0.92931" transform="rotate(-180 995.429 478.043)" fill="white"/>
<ellipse cx="1027.03" cy="478.043" rx="0.92926" ry="0.929306" transform="rotate(-180 1027.03 478.043)" fill="white"/>
<circle cx="1058.62" cy="478.043" r="0.92931" transform="rotate(-180 1058.62 478.043)" fill="white"/>
<circle cx="1090.22" cy="478.043" r="0.92931" transform="rotate(-180 1090.22 478.043)" fill="white"/>
<ellipse cx="1121.82" cy="478.043" rx="0.92926" ry="0.929306" transform="rotate(-180 1121.82 478.043)" fill="white"/>
<circle cx="1153.41" cy="478.043" r="0.92931" transform="rotate(-180 1153.41 478.043)" fill="white"/>
<circle cx="616.271" cy="509.64" r="0.92931" transform="rotate(-180 616.271 509.64)" fill="white"/>
<circle cx="647.867" cy="509.64" r="0.92931" transform="rotate(-180 647.867 509.64)" fill="white"/>
<circle cx="679.464" cy="509.64" r="0.92931" transform="rotate(-180 679.464 509.64)" fill="white"/>
<circle cx="711.06" cy="509.64" r="0.92931" transform="rotate(-180 711.06 509.64)" fill="white"/>
<circle cx="742.657" cy="509.64" r="0.92931" transform="rotate(-180 742.657 509.64)" fill="white"/>
<circle cx="774.254" cy="509.64" r="0.92931" transform="rotate(-180 774.254 509.64)" fill="white"/>
<circle cx="805.85" cy="509.64" r="0.92931" transform="rotate(-180 805.85 509.64)" fill="white"/>
<circle cx="837.447" cy="509.64" r="0.92931" transform="rotate(-180 837.447 509.64)" fill="white"/>
<circle cx="869.043" cy="509.64" r="0.92931" transform="rotate(-180 869.043 509.64)" fill="white"/>
<circle cx="900.64" cy="509.64" r="0.92931" transform="rotate(-180 900.64 509.64)" fill="white"/>
<circle cx="932.236" cy="509.64" r="0.92931" transform="rotate(-180 932.236 509.64)" fill="white"/>
<circle cx="963.833" cy="509.64" r="0.92931" transform="rotate(-180 963.833 509.64)" fill="white"/>
<circle cx="995.429" cy="509.64" r="0.92931" transform="rotate(-180 995.429 509.64)" fill="white"/>
<ellipse cx="1027.03" cy="509.64" rx="0.92926" ry="0.929321" transform="rotate(-180 1027.03 509.64)" fill="white"/>
<circle cx="1058.62" cy="509.64" r="0.92931" transform="rotate(-180 1058.62 509.64)" fill="white"/>
<circle cx="1090.22" cy="509.64" r="0.92931" transform="rotate(-180 1090.22 509.64)" fill="white"/>
<ellipse cx="1121.82" cy="509.64" rx="0.92926" ry="0.929321" transform="rotate(-180 1121.82 509.64)" fill="white"/>
<circle cx="1153.41" cy="509.64" r="0.92931" transform="rotate(-180 1153.41 509.64)" fill="white"/>
<circle cx="616.271" cy="541.237" r="0.92931" transform="rotate(-180 616.271 541.237)" fill="white"/>
<circle cx="647.867" cy="541.237" r="0.92931" transform="rotate(-180 647.867 541.237)" fill="white"/>
<circle cx="679.464" cy="541.237" r="0.92931" transform="rotate(-180 679.464 541.237)" fill="white"/>
<circle cx="711.06" cy="541.237" r="0.92931" transform="rotate(-180 711.06 541.237)" fill="white"/>
<circle cx="742.657" cy="541.237" r="0.92931" transform="rotate(-180 742.657 541.237)" fill="white"/>
<circle cx="774.254" cy="541.237" r="0.92931" transform="rotate(-180 774.254 541.237)" fill="white"/>
<circle cx="805.85" cy="541.237" r="0.92931" transform="rotate(-180 805.85 541.237)" fill="white"/>
<circle cx="837.447" cy="541.237" r="0.92931" transform="rotate(-180 837.447 541.237)" fill="white"/>
<circle cx="869.043" cy="541.237" r="0.92931" transform="rotate(-180 869.043 541.237)" fill="white"/>
<circle cx="900.64" cy="541.237" r="0.92931" transform="rotate(-180 900.64 541.237)" fill="white"/>
<circle cx="932.236" cy="541.237" r="0.92931" transform="rotate(-180 932.236 541.237)" fill="white"/>
<circle cx="963.833" cy="541.237" r="0.92931" transform="rotate(-180 963.833 541.237)" fill="white"/>
<circle cx="995.429" cy="541.237" r="0.92931" transform="rotate(-180 995.429 541.237)" fill="white"/>
<ellipse cx="1027.03" cy="541.237" rx="0.92926" ry="0.929291" transform="rotate(-180 1027.03 541.237)" fill="white"/>
<circle cx="1058.62" cy="541.237" r="0.92931" transform="rotate(-180 1058.62 541.237)" fill="white"/>
<circle cx="1090.22" cy="541.237" r="0.92931" transform="rotate(-180 1090.22 541.237)" fill="white"/>
<ellipse cx="1121.82" cy="541.237" rx="0.92926" ry="0.929291" transform="rotate(-180 1121.82 541.237)" fill="white"/>
<circle cx="1153.41" cy="541.237" r="0.92931" transform="rotate(-180 1153.41 541.237)" fill="white"/>
<circle cx="616.271" cy="572.833" r="0.92931" transform="rotate(-180 616.271 572.833)" fill="white"/>
<circle cx="647.867" cy="572.833" r="0.92931" transform="rotate(-180 647.867 572.833)" fill="white"/>
<circle cx="679.464" cy="572.833" r="0.92931" transform="rotate(-180 679.464 572.833)" fill="white"/>
<circle cx="711.06" cy="572.833" r="0.92931" transform="rotate(-180 711.06 572.833)" fill="white"/>
<circle cx="742.657" cy="572.833" r="0.92931" transform="rotate(-180 742.657 572.833)" fill="white"/>
<circle cx="774.254" cy="572.833" r="0.92931" transform="rotate(-180 774.254 572.833)" fill="white"/>
<circle cx="805.85" cy="572.833" r="0.92931" transform="rotate(-180 805.85 572.833)" fill="white"/>
<circle cx="837.447" cy="572.833" r="0.92931" transform="rotate(-180 837.447 572.833)" fill="white"/>
<circle cx="869.043" cy="572.833" r="0.92931" transform="rotate(-180 869.043 572.833)" fill="white"/>
<circle cx="900.64" cy="572.833" r="0.92931" transform="rotate(-180 900.64 572.833)" fill="white"/>
<circle cx="932.236" cy="572.833" r="0.92931" transform="rotate(-180 932.236 572.833)" fill="white"/>
<circle cx="963.833" cy="572.833" r="0.92931" transform="rotate(-180 963.833 572.833)" fill="white"/>
<circle cx="995.429" cy="572.833" r="0.92931" transform="rotate(-180 995.429 572.833)" fill="white"/>
<ellipse cx="1027.03" cy="572.833" rx="0.92926" ry="0.929321" transform="rotate(-180 1027.03 572.833)" fill="white"/>
<circle cx="1058.62" cy="572.833" r="0.92931" transform="rotate(-180 1058.62 572.833)" fill="white"/>
<circle cx="1090.22" cy="572.833" r="0.92931" transform="rotate(-180 1090.22 572.833)" fill="white"/>
<ellipse cx="1121.82" cy="572.833" rx="0.92926" ry="0.929321" transform="rotate(-180 1121.82 572.833)" fill="white"/>
<circle cx="1153.41" cy="572.833" r="0.92931" transform="rotate(-180 1153.41 572.833)" fill="white"/>
<circle cx="616.271" cy="604.43" r="0.92931" transform="rotate(-180 616.271 604.43)" fill="white"/>
<circle cx="647.867" cy="604.43" r="0.92931" transform="rotate(-180 647.867 604.43)" fill="white"/>
<circle cx="679.464" cy="604.43" r="0.92931" transform="rotate(-180 679.464 604.43)" fill="white"/>
<circle cx="711.06" cy="604.43" r="0.92931" transform="rotate(-180 711.06 604.43)" fill="white"/>
<circle cx="742.657" cy="604.43" r="0.92931" transform="rotate(-180 742.657 604.43)" fill="white"/>
<circle cx="774.254" cy="604.43" r="0.92931" transform="rotate(-180 774.254 604.43)" fill="white"/>
<circle cx="805.85" cy="604.43" r="0.92931" transform="rotate(-180 805.85 604.43)" fill="white"/>
<circle cx="837.447" cy="604.43" r="0.92931" transform="rotate(-180 837.447 604.43)" fill="white"/>
<circle cx="869.043" cy="604.43" r="0.92931" transform="rotate(-180 869.043 604.43)" fill="white"/>
<circle cx="900.64" cy="604.43" r="0.92931" transform="rotate(-180 900.64 604.43)" fill="white"/>
<circle cx="932.236" cy="604.43" r="0.92931" transform="rotate(-180 932.236 604.43)" fill="white"/>
<circle cx="963.833" cy="604.43" r="0.92931" transform="rotate(-180 963.833 604.43)" fill="white"/>
<circle cx="995.429" cy="604.43" r="0.92931" transform="rotate(-180 995.429 604.43)" fill="white"/>
<ellipse cx="1027.03" cy="604.43" rx="0.92926" ry="0.929291" transform="rotate(-180 1027.03 604.43)" fill="white"/>
<circle cx="1058.62" cy="604.43" r="0.92931" transform="rotate(-180 1058.62 604.43)" fill="white"/>
<circle cx="1090.22" cy="604.43" r="0.92931" transform="rotate(-180 1090.22 604.43)" fill="white"/>
<ellipse cx="1121.82" cy="604.43" rx="0.92926" ry="0.929291" transform="rotate(-180 1121.82 604.43)" fill="white"/>
<circle cx="1153.41" cy="604.43" r="0.92931" transform="rotate(-180 1153.41 604.43)" fill="white"/>
<circle cx="616.271" cy="636.026" r="0.92931" transform="rotate(-180 616.271 636.026)" fill="white"/>
<circle cx="647.867" cy="636.026" r="0.92931" transform="rotate(-180 647.867 636.026)" fill="white"/>
<circle cx="679.464" cy="636.026" r="0.92931" transform="rotate(-180 679.464 636.026)" fill="white"/>
<circle cx="711.06" cy="636.026" r="0.92931" transform="rotate(-180 711.06 636.026)" fill="white"/>
<circle cx="742.657" cy="636.026" r="0.92931" transform="rotate(-180 742.657 636.026)" fill="white"/>
<circle cx="774.254" cy="636.026" r="0.92931" transform="rotate(-180 774.254 636.026)" fill="white"/>
<circle cx="805.85" cy="636.026" r="0.92931" transform="rotate(-180 805.85 636.026)" fill="white"/>
<circle cx="837.447" cy="636.026" r="0.92931" transform="rotate(-180 837.447 636.026)" fill="white"/>
<circle cx="869.043" cy="636.026" r="0.92931" transform="rotate(-180 869.043 636.026)" fill="white"/>
<circle cx="900.64" cy="636.026" r="0.92931" transform="rotate(-180 900.64 636.026)" fill="white"/>
<circle cx="932.236" cy="636.026" r="0.92931" transform="rotate(-180 932.236 636.026)" fill="white"/>
<circle cx="963.833" cy="636.026" r="0.92931" transform="rotate(-180 963.833 636.026)" fill="white"/>
<circle cx="995.429" cy="636.026" r="0.92931" transform="rotate(-180 995.429 636.026)" fill="white"/>
<ellipse cx="1027.03" cy="636.026" rx="0.92926" ry="0.929291" transform="rotate(-180 1027.03 636.026)" fill="white"/>
<circle cx="1058.62" cy="636.026" r="0.92931" transform="rotate(-180 1058.62 636.026)" fill="white"/>
<circle cx="1090.22" cy="636.026" r="0.92931" transform="rotate(-180 1090.22 636.026)" fill="white"/>
<ellipse cx="1121.82" cy="636.026" rx="0.92926" ry="0.929291" transform="rotate(-180 1121.82 636.026)" fill="white"/>
<circle cx="1153.41" cy="636.026" r="0.92931" transform="rotate(-180 1153.41 636.026)" fill="white"/>
<circle cx="632.271" cy="209.271" r="0.92931" transform="rotate(-180 632.271 209.271)" fill="white"/>
<circle cx="663.867" cy="209.271" r="0.92931" transform="rotate(-180 663.867 209.271)" fill="white"/>
<circle cx="695.464" cy="209.271" r="0.92931" transform="rotate(-180 695.464 209.271)" fill="white"/>
<circle cx="727.06" cy="209.271" r="0.92931" transform="rotate(-180 727.06 209.271)" fill="white"/>
<circle cx="758.657" cy="209.271" r="0.92931" transform="rotate(-180 758.657 209.271)" fill="white"/>
<circle cx="790.254" cy="209.271" r="0.92931" transform="rotate(-180 790.254 209.271)" fill="white"/>
<circle cx="821.85" cy="209.271" r="0.92931" transform="rotate(-180 821.85 209.271)" fill="white"/>
<circle cx="853.447" cy="209.271" r="0.92931" transform="rotate(-180 853.447 209.271)" fill="white"/>
<circle cx="885.043" cy="209.271" r="0.92931" transform="rotate(-180 885.043 209.271)" fill="white"/>
<circle cx="916.64" cy="209.271" r="0.92931" transform="rotate(-180 916.64 209.271)" fill="white"/>
<circle cx="948.236" cy="209.271" r="0.92931" transform="rotate(-180 948.236 209.271)" fill="white"/>
<circle cx="979.833" cy="209.271" r="0.92931" transform="rotate(-180 979.833 209.271)" fill="white"/>
<circle cx="1011.43" cy="209.271" r="0.92931" transform="rotate(-180 1011.43 209.271)" fill="white"/>
<ellipse cx="1043.03" cy="209.271" rx="0.92926" ry="0.929314" transform="rotate(-180 1043.03 209.271)" fill="white"/>
<circle cx="1074.62" cy="209.271" r="0.92931" transform="rotate(-180 1074.62 209.271)" fill="white"/>
<circle cx="1106.22" cy="209.271" r="0.92931" transform="rotate(-180 1106.22 209.271)" fill="white"/>
<ellipse cx="1137.82" cy="209.271" rx="0.92926" ry="0.929314" transform="rotate(-180 1137.82 209.271)" fill="white"/>
<circle cx="1169.41" cy="209.271" r="0.92931" transform="rotate(-180 1169.41 209.271)" fill="white"/>
<circle cx="632.271" cy="209.271" r="0.92931" transform="rotate(-180 632.271 209.271)" fill="white"/>
<circle cx="663.867" cy="209.271" r="0.92931" transform="rotate(-180 663.867 209.271)" fill="white"/>
<circle cx="695.464" cy="209.271" r="0.92931" transform="rotate(-180 695.464 209.271)" fill="white"/>
<circle cx="727.06" cy="209.271" r="0.92931" transform="rotate(-180 727.06 209.271)" fill="white"/>
<circle cx="758.657" cy="209.271" r="0.92931" transform="rotate(-180 758.657 209.271)" fill="white"/>
<circle cx="790.254" cy="209.271" r="0.92931" transform="rotate(-180 790.254 209.271)" fill="white"/>
<circle cx="821.85" cy="209.271" r="0.92931" transform="rotate(-180 821.85 209.271)" fill="white"/>
<circle cx="853.447" cy="209.271" r="0.92931" transform="rotate(-180 853.447 209.271)" fill="white"/>
<circle cx="885.043" cy="209.271" r="0.92931" transform="rotate(-180 885.043 209.271)" fill="white"/>
<circle cx="916.64" cy="209.271" r="0.92931" transform="rotate(-180 916.64 209.271)" fill="white"/>
<circle cx="948.236" cy="209.271" r="0.92931" transform="rotate(-180 948.236 209.271)" fill="white"/>
<circle cx="979.833" cy="209.271" r="0.92931" transform="rotate(-180 979.833 209.271)" fill="white"/>
<circle cx="1011.43" cy="209.271" r="0.92931" transform="rotate(-180 1011.43 209.271)" fill="white"/>
<ellipse cx="1043.03" cy="209.271" rx="0.92926" ry="0.929314" transform="rotate(-180 1043.03 209.271)" fill="white"/>
<circle cx="1074.62" cy="209.271" r="0.92931" transform="rotate(-180 1074.62 209.271)" fill="white"/>
<circle cx="1106.22" cy="209.271" r="0.92931" transform="rotate(-180 1106.22 209.271)" fill="white"/>
<ellipse cx="1137.82" cy="209.271" rx="0.92926" ry="0.929314" transform="rotate(-180 1137.82 209.271)" fill="white"/>
<circle cx="1169.41" cy="209.271" r="0.92931" transform="rotate(-180 1169.41 209.271)" fill="white"/>
<circle cx="632.271" cy="240.868" r="0.92931" transform="rotate(-180 632.271 240.868)" fill="white"/>
<circle cx="663.867" cy="240.868" r="0.92931" transform="rotate(-180 663.867 240.868)" fill="white"/>
<circle cx="695.464" cy="240.868" r="0.92931" transform="rotate(-180 695.464 240.868)" fill="white"/>
<circle cx="727.06" cy="240.868" r="0.92931" transform="rotate(-180 727.06 240.868)" fill="white"/>
<circle cx="758.657" cy="240.868" r="0.92931" transform="rotate(-180 758.657 240.868)" fill="white"/>
<circle cx="790.254" cy="240.868" r="0.92931" transform="rotate(-180 790.254 240.868)" fill="white"/>
<circle cx="821.85" cy="240.868" r="0.92931" transform="rotate(-180 821.85 240.868)" fill="white"/>
<circle cx="853.447" cy="240.868" r="0.92931" transform="rotate(-180 853.447 240.868)" fill="white"/>
<circle cx="885.043" cy="240.868" r="0.92931" transform="rotate(-180 885.043 240.868)" fill="white"/>
<circle cx="916.64" cy="240.868" r="0.92931" transform="rotate(-180 916.64 240.868)" fill="white"/>
<circle cx="948.236" cy="240.868" r="0.92931" transform="rotate(-180 948.236 240.868)" fill="white"/>
<circle cx="979.833" cy="240.868" r="0.92931" transform="rotate(-180 979.833 240.868)" fill="white"/>
<circle cx="1011.43" cy="240.868" r="0.92931" transform="rotate(-180 1011.43 240.868)" fill="white"/>
<circle cx="1043.03" cy="240.868" r="0.92931" transform="rotate(-180 1043.03 240.868)" fill="white"/>
<circle cx="1074.62" cy="240.868" r="0.92931" transform="rotate(-180 1074.62 240.868)" fill="white"/>
<circle cx="1106.22" cy="240.868" r="0.92931" transform="rotate(-180 1106.22 240.868)" fill="white"/>
<circle cx="1137.82" cy="240.868" r="0.92931" transform="rotate(-180 1137.82 240.868)" fill="white"/>
<circle cx="1169.41" cy="240.868" r="0.92931" transform="rotate(-180 1169.41 240.868)" fill="white"/>
<circle cx="632.271" cy="272.464" r="0.92931" transform="rotate(-180 632.271 272.464)" fill="white"/>
<circle cx="663.867" cy="272.464" r="0.92931" transform="rotate(-180 663.867 272.464)" fill="white"/>
<circle cx="695.464" cy="272.464" r="0.92931" transform="rotate(-180 695.464 272.464)" fill="white"/>
<circle cx="727.06" cy="272.464" r="0.92931" transform="rotate(-180 727.06 272.464)" fill="white"/>
<circle cx="758.657" cy="272.464" r="0.92931" transform="rotate(-180 758.657 272.464)" fill="white"/>
<circle cx="790.254" cy="272.464" r="0.92931" transform="rotate(-180 790.254 272.464)" fill="white"/>
<circle cx="821.85" cy="272.464" r="0.92931" transform="rotate(-180 821.85 272.464)" fill="white"/>
<circle cx="853.447" cy="272.464" r="0.92931" transform="rotate(-180 853.447 272.464)" fill="white"/>
<circle cx="885.043" cy="272.464" r="0.92931" transform="rotate(-180 885.043 272.464)" fill="white"/>
<circle cx="916.64" cy="272.464" r="0.92931" transform="rotate(-180 916.64 272.464)" fill="white"/>
<circle cx="948.236" cy="272.464" r="0.92931" transform="rotate(-180 948.236 272.464)" fill="white"/>
<circle cx="979.833" cy="272.464" r="0.92931" transform="rotate(-180 979.833 272.464)" fill="white"/>
<circle cx="1011.43" cy="272.464" r="0.92931" transform="rotate(-180 1011.43 272.464)" fill="white"/>
<ellipse cx="1043.03" cy="272.464" rx="0.92926" ry="0.929306" transform="rotate(-180 1043.03 272.464)" fill="white"/>
<circle cx="1074.62" cy="272.464" r="0.92931" transform="rotate(-180 1074.62 272.464)" fill="white"/>
<circle cx="1106.22" cy="272.464" r="0.92931" transform="rotate(-180 1106.22 272.464)" fill="white"/>
<ellipse cx="1137.82" cy="272.464" rx="0.92926" ry="0.929306" transform="rotate(-180 1137.82 272.464)" fill="white"/>
<circle cx="1169.41" cy="272.464" r="0.92931" transform="rotate(-180 1169.41 272.464)" fill="white"/>
<circle cx="632.271" cy="304.061" r="0.92931" transform="rotate(-180 632.271 304.061)" fill="white"/>
<circle cx="663.867" cy="304.061" r="0.92931" transform="rotate(-180 663.867 304.061)" fill="white"/>
<circle cx="695.464" cy="304.061" r="0.92931" transform="rotate(-180 695.464 304.061)" fill="white"/>
<circle cx="727.06" cy="304.061" r="0.92931" transform="rotate(-180 727.06 304.061)" fill="white"/>
<circle cx="758.657" cy="304.061" r="0.92931" transform="rotate(-180 758.657 304.061)" fill="white"/>
<circle cx="790.254" cy="304.061" r="0.92931" transform="rotate(-180 790.254 304.061)" fill="white"/>
<circle cx="821.85" cy="304.061" r="0.92931" transform="rotate(-180 821.85 304.061)" fill="white"/>
<circle cx="853.447" cy="304.061" r="0.92931" transform="rotate(-180 853.447 304.061)" fill="white"/>
<circle cx="885.043" cy="304.061" r="0.92931" transform="rotate(-180 885.043 304.061)" fill="white"/>
<circle cx="916.64" cy="304.061" r="0.92931" transform="rotate(-180 916.64 304.061)" fill="white"/>
<circle cx="948.236" cy="304.061" r="0.92931" transform="rotate(-180 948.236 304.061)" fill="white"/>
<circle cx="979.833" cy="304.061" r="0.92931" transform="rotate(-180 979.833 304.061)" fill="white"/>
<circle cx="1011.43" cy="304.061" r="0.92931" transform="rotate(-180 1011.43 304.061)" fill="white"/>
<ellipse cx="1043.03" cy="304.061" rx="0.92926" ry="0.929321" transform="rotate(-180 1043.03 304.061)" fill="white"/>
<circle cx="1074.62" cy="304.061" r="0.92931" transform="rotate(-180 1074.62 304.061)" fill="white"/>
<circle cx="1106.22" cy="304.061" r="0.92931" transform="rotate(-180 1106.22 304.061)" fill="white"/>
<ellipse cx="1137.82" cy="304.061" rx="0.92926" ry="0.929321" transform="rotate(-180 1137.82 304.061)" fill="white"/>
<circle cx="1169.41" cy="304.061" r="0.92931" transform="rotate(-180 1169.41 304.061)" fill="white"/>
<circle cx="632.271" cy="335.657" r="0.92931" transform="rotate(-180 632.271 335.657)" fill="white"/>
<circle cx="663.867" cy="335.657" r="0.92931" transform="rotate(-180 663.867 335.657)" fill="white"/>
<circle cx="695.464" cy="335.657" r="0.92931" transform="rotate(-180 695.464 335.657)" fill="white"/>
<circle cx="727.06" cy="335.657" r="0.92931" transform="rotate(-180 727.06 335.657)" fill="white"/>
<circle cx="758.657" cy="335.657" r="0.92931" transform="rotate(-180 758.657 335.657)" fill="white"/>
<circle cx="790.254" cy="335.657" r="0.92931" transform="rotate(-180 790.254 335.657)" fill="white"/>
<circle cx="821.85" cy="335.657" r="0.92931" transform="rotate(-180 821.85 335.657)" fill="white"/>
<circle cx="853.447" cy="335.657" r="0.92931" transform="rotate(-180 853.447 335.657)" fill="white"/>
<circle cx="885.043" cy="335.657" r="0.92931" transform="rotate(-180 885.043 335.657)" fill="white"/>
<circle cx="916.64" cy="335.657" r="0.92931" transform="rotate(-180 916.64 335.657)" fill="white"/>
<circle cx="948.236" cy="335.657" r="0.92931" transform="rotate(-180 948.236 335.657)" fill="white"/>
<circle cx="979.833" cy="335.657" r="0.92931" transform="rotate(-180 979.833 335.657)" fill="white"/>
<circle cx="1011.43" cy="335.657" r="0.92931" transform="rotate(-180 1011.43 335.657)" fill="white"/>
<ellipse cx="1043.03" cy="335.657" rx="0.92926" ry="0.929306" transform="rotate(-180 1043.03 335.657)" fill="white"/>
<circle cx="1074.62" cy="335.657" r="0.92931" transform="rotate(-180 1074.62 335.657)" fill="white"/>
<circle cx="1106.22" cy="335.657" r="0.92931" transform="rotate(-180 1106.22 335.657)" fill="white"/>
<ellipse cx="1137.82" cy="335.657" rx="0.92926" ry="0.929306" transform="rotate(-180 1137.82 335.657)" fill="white"/>
<circle cx="1169.41" cy="335.657" r="0.92931" transform="rotate(-180 1169.41 335.657)" fill="white"/>
<circle cx="632.271" cy="367.254" r="0.92931" transform="rotate(-180 632.271 367.254)" fill="white"/>
<circle cx="663.867" cy="367.254" r="0.92931" transform="rotate(-180 663.867 367.254)" fill="white"/>
<circle cx="695.464" cy="367.254" r="0.92931" transform="rotate(-180 695.464 367.254)" fill="white"/>
<circle cx="727.06" cy="367.254" r="0.92931" transform="rotate(-180 727.06 367.254)" fill="white"/>
<circle cx="758.657" cy="367.254" r="0.92931" transform="rotate(-180 758.657 367.254)" fill="white"/>
<circle cx="790.254" cy="367.254" r="0.92931" transform="rotate(-180 790.254 367.254)" fill="white"/>
<circle cx="821.85" cy="367.254" r="0.92931" transform="rotate(-180 821.85 367.254)" fill="white"/>
<circle cx="853.447" cy="367.254" r="0.92931" transform="rotate(-180 853.447 367.254)" fill="white"/>
<circle cx="885.043" cy="367.254" r="0.92931" transform="rotate(-180 885.043 367.254)" fill="white"/>
<circle cx="916.64" cy="367.254" r="0.92931" transform="rotate(-180 916.64 367.254)" fill="white"/>
<circle cx="948.236" cy="367.254" r="0.92931" transform="rotate(-180 948.236 367.254)" fill="white"/>
<circle cx="979.833" cy="367.254" r="0.92931" transform="rotate(-180 979.833 367.254)" fill="white"/>
<circle cx="1011.43" cy="367.254" r="0.92931" transform="rotate(-180 1011.43 367.254)" fill="white"/>
<ellipse cx="1043.03" cy="367.254" rx="0.92926" ry="0.929306" transform="rotate(-180 1043.03 367.254)" fill="white"/>
<circle cx="1074.62" cy="367.254" r="0.92931" transform="rotate(-180 1074.62 367.254)" fill="white"/>
<circle cx="1106.22" cy="367.254" r="0.92931" transform="rotate(-180 1106.22 367.254)" fill="white"/>
<ellipse cx="1137.82" cy="367.254" rx="0.92926" ry="0.929306" transform="rotate(-180 1137.82 367.254)" fill="white"/>
<circle cx="1169.41" cy="367.254" r="0.92931" transform="rotate(-180 1169.41 367.254)" fill="white"/>
<circle cx="632.271" cy="398.85" r="0.92931" transform="rotate(-180 632.271 398.85)" fill="white"/>
<circle cx="663.867" cy="398.85" r="0.92931" transform="rotate(-180 663.867 398.85)" fill="white"/>
<circle cx="695.464" cy="398.85" r="0.92931" transform="rotate(-180 695.464 398.85)" fill="white"/>
<circle cx="727.06" cy="398.85" r="0.92931" transform="rotate(-180 727.06 398.85)" fill="white"/>
<circle cx="758.657" cy="398.85" r="0.92931" transform="rotate(-180 758.657 398.85)" fill="white"/>
<circle cx="790.254" cy="398.85" r="0.92931" transform="rotate(-180 790.254 398.85)" fill="white"/>
<circle cx="821.85" cy="398.85" r="0.92931" transform="rotate(-180 821.85 398.85)" fill="white"/>
<circle cx="853.447" cy="398.85" r="0.92931" transform="rotate(-180 853.447 398.85)" fill="white"/>
<circle cx="885.043" cy="398.85" r="0.92931" transform="rotate(-180 885.043 398.85)" fill="white"/>
<circle cx="916.64" cy="398.85" r="0.92931" transform="rotate(-180 916.64 398.85)" fill="white"/>
<circle cx="948.236" cy="398.85" r="0.92931" transform="rotate(-180 948.236 398.85)" fill="white"/>
<circle cx="979.833" cy="398.85" r="0.92931" transform="rotate(-180 979.833 398.85)" fill="white"/>
<circle cx="1011.43" cy="398.85" r="0.92931" transform="rotate(-180 1011.43 398.85)" fill="white"/>
<ellipse cx="1043.03" cy="398.85" rx="0.92926" ry="0.929306" transform="rotate(-180 1043.03 398.85)" fill="white"/>
<circle cx="1074.62" cy="398.85" r="0.92931" transform="rotate(-180 1074.62 398.85)" fill="white"/>
<circle cx="1106.22" cy="398.85" r="0.92931" transform="rotate(-180 1106.22 398.85)" fill="white"/>
<ellipse cx="1137.82" cy="398.85" rx="0.92926" ry="0.929306" transform="rotate(-180 1137.82 398.85)" fill="white"/>
<circle cx="1169.41" cy="398.85" r="0.92931" transform="rotate(-180 1169.41 398.85)" fill="white"/>
<circle cx="632.271" cy="430.447" r="0.92931" transform="rotate(-180 632.271 430.447)" fill="white"/>
<circle cx="663.867" cy="430.447" r="0.92931" transform="rotate(-180 663.867 430.447)" fill="white"/>
<circle cx="695.464" cy="430.447" r="0.92931" transform="rotate(-180 695.464 430.447)" fill="white"/>
<circle cx="727.06" cy="430.447" r="0.92931" transform="rotate(-180 727.06 430.447)" fill="white"/>
<circle cx="758.657" cy="430.447" r="0.92931" transform="rotate(-180 758.657 430.447)" fill="white"/>
<circle cx="790.254" cy="430.447" r="0.92931" transform="rotate(-180 790.254 430.447)" fill="white"/>
<circle cx="821.85" cy="430.447" r="0.92931" transform="rotate(-180 821.85 430.447)" fill="white"/>
<circle cx="853.447" cy="430.447" r="0.92931" transform="rotate(-180 853.447 430.447)" fill="white"/>
<circle cx="885.043" cy="430.447" r="0.92931" transform="rotate(-180 885.043 430.447)" fill="white"/>
<circle cx="916.64" cy="430.447" r="0.92931" transform="rotate(-180 916.64 430.447)" fill="white"/>
<circle cx="948.236" cy="430.447" r="0.92931" transform="rotate(-180 948.236 430.447)" fill="white"/>
<circle cx="979.833" cy="430.447" r="0.92931" transform="rotate(-180 979.833 430.447)" fill="white"/>
<circle cx="1011.43" cy="430.447" r="0.92931" transform="rotate(-180 1011.43 430.447)" fill="white"/>
<ellipse cx="1043.03" cy="430.447" rx="0.92926" ry="0.929306" transform="rotate(-180 1043.03 430.447)" fill="white"/>
<circle cx="1074.62" cy="430.447" r="0.92931" transform="rotate(-180 1074.62 430.447)" fill="white"/>
<circle cx="1106.22" cy="430.447" r="0.92931" transform="rotate(-180 1106.22 430.447)" fill="white"/>
<ellipse cx="1137.82" cy="430.447" rx="0.92926" ry="0.929306" transform="rotate(-180 1137.82 430.447)" fill="white"/>
<circle cx="1169.41" cy="430.447" r="0.92931" transform="rotate(-180 1169.41 430.447)" fill="white"/>
<circle cx="632.271" cy="462.044" r="0.92931" transform="rotate(-180 632.271 462.044)" fill="white"/>
<circle cx="663.867" cy="462.044" r="0.92931" transform="rotate(-180 663.867 462.044)" fill="white"/>
<circle cx="695.464" cy="462.044" r="0.92931" transform="rotate(-180 695.464 462.044)" fill="white"/>
<circle cx="727.06" cy="462.044" r="0.92931" transform="rotate(-180 727.06 462.044)" fill="white"/>
<circle cx="758.657" cy="462.044" r="0.92931" transform="rotate(-180 758.657 462.044)" fill="white"/>
<circle cx="790.254" cy="462.044" r="0.92931" transform="rotate(-180 790.254 462.044)" fill="white"/>
<circle cx="821.85" cy="462.044" r="0.92931" transform="rotate(-180 821.85 462.044)" fill="white"/>
<circle cx="853.447" cy="462.044" r="0.92931" transform="rotate(-180 853.447 462.044)" fill="white"/>
<circle cx="885.043" cy="462.044" r="0.92931" transform="rotate(-180 885.043 462.044)" fill="white"/>
<circle cx="916.64" cy="462.044" r="0.92931" transform="rotate(-180 916.64 462.044)" fill="white"/>
<circle cx="948.236" cy="462.044" r="0.92931" transform="rotate(-180 948.236 462.044)" fill="white"/>
<circle cx="979.833" cy="462.044" r="0.92931" transform="rotate(-180 979.833 462.044)" fill="white"/>
<circle cx="1011.43" cy="462.044" r="0.92931" transform="rotate(-180 1011.43 462.044)" fill="white"/>
<ellipse cx="1043.03" cy="462.044" rx="0.92926" ry="0.929306" transform="rotate(-180 1043.03 462.044)" fill="white"/>
<circle cx="1074.62" cy="462.044" r="0.92931" transform="rotate(-180 1074.62 462.044)" fill="white"/>
<circle cx="1106.22" cy="462.044" r="0.92931" transform="rotate(-180 1106.22 462.044)" fill="white"/>
<ellipse cx="1137.82" cy="462.044" rx="0.92926" ry="0.929306" transform="rotate(-180 1137.82 462.044)" fill="white"/>
<circle cx="1169.41" cy="462.044" r="0.92931" transform="rotate(-180 1169.41 462.044)" fill="white"/>
<circle cx="632.271" cy="493.64" r="0.92931" transform="rotate(-180 632.271 493.64)" fill="white"/>
<circle cx="663.867" cy="493.64" r="0.92931" transform="rotate(-180 663.867 493.64)" fill="white"/>
<circle cx="695.464" cy="493.64" r="0.92931" transform="rotate(-180 695.464 493.64)" fill="white"/>
<circle cx="727.06" cy="493.64" r="0.92931" transform="rotate(-180 727.06 493.64)" fill="white"/>
<circle cx="758.657" cy="493.64" r="0.92931" transform="rotate(-180 758.657 493.64)" fill="white"/>
<circle cx="790.254" cy="493.64" r="0.92931" transform="rotate(-180 790.254 493.64)" fill="white"/>
<circle cx="821.85" cy="493.64" r="0.92931" transform="rotate(-180 821.85 493.64)" fill="white"/>
<circle cx="853.447" cy="493.64" r="0.92931" transform="rotate(-180 853.447 493.64)" fill="white"/>
<circle cx="885.043" cy="493.64" r="0.92931" transform="rotate(-180 885.043 493.64)" fill="white"/>
<circle cx="916.64" cy="493.64" r="0.92931" transform="rotate(-180 916.64 493.64)" fill="white"/>
<circle cx="948.236" cy="493.64" r="0.92931" transform="rotate(-180 948.236 493.64)" fill="white"/>
<circle cx="979.833" cy="493.64" r="0.92931" transform="rotate(-180 979.833 493.64)" fill="white"/>
<circle cx="1011.43" cy="493.64" r="0.92931" transform="rotate(-180 1011.43 493.64)" fill="white"/>
<ellipse cx="1043.03" cy="493.64" rx="0.92926" ry="0.929321" transform="rotate(-180 1043.03 493.64)" fill="white"/>
<circle cx="1074.62" cy="493.64" r="0.92931" transform="rotate(-180 1074.62 493.64)" fill="white"/>
<circle cx="1106.22" cy="493.64" r="0.92931" transform="rotate(-180 1106.22 493.64)" fill="white"/>
<ellipse cx="1137.82" cy="493.64" rx="0.92926" ry="0.929321" transform="rotate(-180 1137.82 493.64)" fill="white"/>
<circle cx="1169.41" cy="493.64" r="0.92931" transform="rotate(-180 1169.41 493.64)" fill="white"/>
<circle cx="632.271" cy="525.236" r="0.92931" transform="rotate(-180 632.271 525.236)" fill="white"/>
<circle cx="663.867" cy="525.236" r="0.92931" transform="rotate(-180 663.867 525.236)" fill="white"/>
<circle cx="695.464" cy="525.236" r="0.92931" transform="rotate(-180 695.464 525.236)" fill="white"/>
<circle cx="727.06" cy="525.236" r="0.92931" transform="rotate(-180 727.06 525.236)" fill="white"/>
<circle cx="758.657" cy="525.236" r="0.92931" transform="rotate(-180 758.657 525.236)" fill="white"/>
<circle cx="790.254" cy="525.236" r="0.92931" transform="rotate(-180 790.254 525.236)" fill="white"/>
<circle cx="821.85" cy="525.236" r="0.92931" transform="rotate(-180 821.85 525.236)" fill="white"/>
<circle cx="853.447" cy="525.236" r="0.92931" transform="rotate(-180 853.447 525.236)" fill="white"/>
<circle cx="885.043" cy="525.236" r="0.92931" transform="rotate(-180 885.043 525.236)" fill="white"/>
<circle cx="916.64" cy="525.236" r="0.92931" transform="rotate(-180 916.64 525.236)" fill="white"/>
<circle cx="948.236" cy="525.236" r="0.92931" transform="rotate(-180 948.236 525.236)" fill="white"/>
<circle cx="979.833" cy="525.236" r="0.92931" transform="rotate(-180 979.833 525.236)" fill="white"/>
<circle cx="1011.43" cy="525.236" r="0.92931" transform="rotate(-180 1011.43 525.236)" fill="white"/>
<ellipse cx="1043.03" cy="525.236" rx="0.92926" ry="0.929291" transform="rotate(-180 1043.03 525.236)" fill="white"/>
<circle cx="1074.62" cy="525.236" r="0.92931" transform="rotate(-180 1074.62 525.236)" fill="white"/>
<circle cx="1106.22" cy="525.236" r="0.92931" transform="rotate(-180 1106.22 525.236)" fill="white"/>
<ellipse cx="1137.82" cy="525.236" rx="0.92926" ry="0.929291" transform="rotate(-180 1137.82 525.236)" fill="white"/>
<circle cx="1169.41" cy="525.236" r="0.92931" transform="rotate(-180 1169.41 525.236)" fill="white"/>
<circle cx="632.271" cy="556.833" r="0.92931" transform="rotate(-180 632.271 556.833)" fill="white"/>
<circle cx="663.867" cy="556.833" r="0.92931" transform="rotate(-180 663.867 556.833)" fill="white"/>
<circle cx="695.464" cy="556.833" r="0.92931" transform="rotate(-180 695.464 556.833)" fill="white"/>
<circle cx="727.06" cy="556.833" r="0.92931" transform="rotate(-180 727.06 556.833)" fill="white"/>
<circle cx="758.657" cy="556.833" r="0.92931" transform="rotate(-180 758.657 556.833)" fill="white"/>
<circle cx="790.254" cy="556.833" r="0.92931" transform="rotate(-180 790.254 556.833)" fill="white"/>
<circle cx="821.85" cy="556.833" r="0.92931" transform="rotate(-180 821.85 556.833)" fill="white"/>
<circle cx="853.447" cy="556.833" r="0.92931" transform="rotate(-180 853.447 556.833)" fill="white"/>
<circle cx="885.043" cy="556.833" r="0.92931" transform="rotate(-180 885.043 556.833)" fill="white"/>
<circle cx="916.64" cy="556.833" r="0.92931" transform="rotate(-180 916.64 556.833)" fill="white"/>
<circle cx="948.236" cy="556.833" r="0.92931" transform="rotate(-180 948.236 556.833)" fill="white"/>
<circle cx="979.833" cy="556.833" r="0.92931" transform="rotate(-180 979.833 556.833)" fill="white"/>
<circle cx="1011.43" cy="556.833" r="0.92931" transform="rotate(-180 1011.43 556.833)" fill="white"/>
<ellipse cx="1043.03" cy="556.833" rx="0.92926" ry="0.929321" transform="rotate(-180 1043.03 556.833)" fill="white"/>
<circle cx="1074.62" cy="556.833" r="0.92931" transform="rotate(-180 1074.62 556.833)" fill="white"/>
<circle cx="1106.22" cy="556.833" r="0.92931" transform="rotate(-180 1106.22 556.833)" fill="white"/>
<ellipse cx="1137.82" cy="556.833" rx="0.92926" ry="0.929321" transform="rotate(-180 1137.82 556.833)" fill="white"/>
<circle cx="1169.41" cy="556.833" r="0.92931" transform="rotate(-180 1169.41 556.833)" fill="white"/>
<circle cx="632.271" cy="588.43" r="0.92931" transform="rotate(-180 632.271 588.43)" fill="white"/>
<circle cx="663.867" cy="588.43" r="0.92931" transform="rotate(-180 663.867 588.43)" fill="white"/>
<circle cx="695.464" cy="588.43" r="0.92931" transform="rotate(-180 695.464 588.43)" fill="white"/>
<circle cx="727.06" cy="588.43" r="0.92931" transform="rotate(-180 727.06 588.43)" fill="white"/>
<circle cx="758.657" cy="588.43" r="0.92931" transform="rotate(-180 758.657 588.43)" fill="white"/>
<circle cx="790.254" cy="588.43" r="0.92931" transform="rotate(-180 790.254 588.43)" fill="white"/>
<circle cx="821.85" cy="588.43" r="0.92931" transform="rotate(-180 821.85 588.43)" fill="white"/>
<circle cx="853.447" cy="588.43" r="0.92931" transform="rotate(-180 853.447 588.43)" fill="white"/>
<circle cx="885.043" cy="588.43" r="0.92931" transform="rotate(-180 885.043 588.43)" fill="white"/>
<circle cx="916.64" cy="588.43" r="0.92931" transform="rotate(-180 916.64 588.43)" fill="white"/>
<circle cx="948.236" cy="588.43" r="0.92931" transform="rotate(-180 948.236 588.43)" fill="white"/>
<circle cx="979.833" cy="588.43" r="0.92931" transform="rotate(-180 979.833 588.43)" fill="white"/>
<circle cx="1011.43" cy="588.43" r="0.92931" transform="rotate(-180 1011.43 588.43)" fill="white"/>
<ellipse cx="1043.03" cy="588.43" rx="0.92926" ry="0.929291" transform="rotate(-180 1043.03 588.43)" fill="white"/>
<circle cx="1074.62" cy="588.43" r="0.92931" transform="rotate(-180 1074.62 588.43)" fill="white"/>
<circle cx="1106.22" cy="588.43" r="0.92931" transform="rotate(-180 1106.22 588.43)" fill="white"/>
<ellipse cx="1137.82" cy="588.43" rx="0.92926" ry="0.929291" transform="rotate(-180 1137.82 588.43)" fill="white"/>
<circle cx="1169.41" cy="588.43" r="0.92931" transform="rotate(-180 1169.41 588.43)" fill="white"/>
<circle cx="632.271" cy="620.026" r="0.92931" transform="rotate(-180 632.271 620.026)" fill="white"/>
<circle cx="663.867" cy="620.026" r="0.92931" transform="rotate(-180 663.867 620.026)" fill="white"/>
<circle cx="695.464" cy="620.026" r="0.92931" transform="rotate(-180 695.464 620.026)" fill="white"/>
<circle cx="727.06" cy="620.026" r="0.92931" transform="rotate(-180 727.06 620.026)" fill="white"/>
<circle cx="758.657" cy="620.026" r="0.92931" transform="rotate(-180 758.657 620.026)" fill="white"/>
<circle cx="790.254" cy="620.026" r="0.92931" transform="rotate(-180 790.254 620.026)" fill="white"/>
<circle cx="821.85" cy="620.026" r="0.92931" transform="rotate(-180 821.85 620.026)" fill="white"/>
<circle cx="853.447" cy="620.026" r="0.92931" transform="rotate(-180 853.447 620.026)" fill="white"/>
<circle cx="885.043" cy="620.026" r="0.92931" transform="rotate(-180 885.043 620.026)" fill="white"/>
<circle cx="916.64" cy="620.026" r="0.92931" transform="rotate(-180 916.64 620.026)" fill="white"/>
<circle cx="948.236" cy="620.026" r="0.92931" transform="rotate(-180 948.236 620.026)" fill="white"/>
<circle cx="979.833" cy="620.026" r="0.92931" transform="rotate(-180 979.833 620.026)" fill="white"/>
<circle cx="1011.43" cy="620.026" r="0.92931" transform="rotate(-180 1011.43 620.026)" fill="white"/>
<ellipse cx="1043.03" cy="620.026" rx="0.92926" ry="0.929291" transform="rotate(-180 1043.03 620.026)" fill="white"/>
<circle cx="1074.62" cy="620.026" r="0.92931" transform="rotate(-180 1074.62 620.026)" fill="white"/>
<circle cx="1106.22" cy="620.026" r="0.92931" transform="rotate(-180 1106.22 620.026)" fill="white"/>
<ellipse cx="1137.82" cy="620.026" rx="0.92926" ry="0.929291" transform="rotate(-180 1137.82 620.026)" fill="white"/>
<circle cx="1169.41" cy="620.026" r="0.92931" transform="rotate(-180 1169.41 620.026)" fill="white"/>
<circle cx="4.71533" cy="0.75" r="0.75" transform="rotate(-180 4.71533 0.75)" fill="#440295"/>
<circle cx="24.4121" cy="0.75" r="0.75" transform="rotate(-180 24.4121 0.75)" fill="#440295"/>
<circle cx="44.1084" cy="0.75" r="0.75" transform="rotate(-180 44.1084 0.75)" fill="#440295"/>
<circle cx="63.8052" cy="0.75" r="0.75" transform="rotate(-180 63.8052 0.75)" fill="#440295"/>
<circle cx="83.5015" cy="0.75" r="0.75" transform="rotate(-180 83.5015 0.75)" fill="#440295"/>
<circle cx="103.198" cy="0.75" r="0.75" transform="rotate(-180 103.198 0.75)" fill="#440295"/>
<circle cx="122.895" cy="0.75" r="0.75" transform="rotate(-180 122.895 0.75)" fill="#440295"/>
<circle cx="142.591" cy="0.75" r="0.75" transform="rotate(-180 142.591 0.75)" fill="#440295"/>
<circle cx="4.71533" cy="0.75" r="0.75" transform="rotate(-180 4.71533 0.75)" fill="#440295"/>
<circle cx="24.4121" cy="0.75" r="0.75" transform="rotate(-180 24.4121 0.75)" fill="#440295"/>
<circle cx="44.1084" cy="0.75" r="0.75" transform="rotate(-180 44.1084 0.75)" fill="#440295"/>
<circle cx="63.8052" cy="0.75" r="0.75" transform="rotate(-180 63.8052 0.75)" fill="#440295"/>
<circle cx="83.5015" cy="0.75" r="0.75" transform="rotate(-180 83.5015 0.75)" fill="#440295"/>
<circle cx="103.198" cy="0.75" r="0.75" transform="rotate(-180 103.198 0.75)" fill="#440295"/>
<circle cx="122.895" cy="0.75" r="0.75" transform="rotate(-180 122.895 0.75)" fill="#440295"/>
<circle cx="142.591" cy="0.75" r="0.75" transform="rotate(-180 142.591 0.75)" fill="#440295"/>
<circle cx="4.71533" cy="20.4465" r="0.75" transform="rotate(-180 4.71533 20.4465)" fill="#440295"/>
<circle cx="24.4121" cy="20.4465" r="0.75" transform="rotate(-180 24.4121 20.4465)" fill="#440295"/>
<circle cx="44.1084" cy="20.4465" r="0.75" transform="rotate(-180 44.1084 20.4465)" fill="#440295"/>
<circle cx="63.8052" cy="20.4465" r="0.75" transform="rotate(-180 63.8052 20.4465)" fill="#440295"/>
<circle cx="83.5015" cy="20.4465" r="0.75" transform="rotate(-180 83.5015 20.4465)" fill="#440295"/>
<circle cx="103.198" cy="20.4465" r="0.75" transform="rotate(-180 103.198 20.4465)" fill="#440295"/>
<circle cx="122.895" cy="20.4465" r="0.75" transform="rotate(-180 122.895 20.4465)" fill="#440295"/>
<circle cx="142.591" cy="20.4465" r="0.75" transform="rotate(-180 142.591 20.4465)" fill="#440295"/>
<circle cx="4.71533" cy="40.1431" r="0.75" transform="rotate(-180 4.71533 40.1431)" fill="#440295"/>
<circle cx="24.4121" cy="40.1431" r="0.75" transform="rotate(-180 24.4121 40.1431)" fill="#440295"/>
<circle cx="44.1084" cy="40.1431" r="0.75" transform="rotate(-180 44.1084 40.1431)" fill="#440295"/>
<circle cx="63.8052" cy="40.1431" r="0.75" transform="rotate(-180 63.8052 40.1431)" fill="#440295"/>
<circle cx="83.5015" cy="40.1431" r="0.75" transform="rotate(-180 83.5015 40.1431)" fill="#440295"/>
<circle cx="103.198" cy="40.1431" r="0.75" transform="rotate(-180 103.198 40.1431)" fill="#440295"/>
<circle cx="122.895" cy="40.1431" r="0.75" transform="rotate(-180 122.895 40.1431)" fill="#440295"/>
<circle cx="142.591" cy="40.1431" r="0.75" transform="rotate(-180 142.591 40.1431)" fill="#440295"/>
<circle cx="4.71533" cy="59.8396" r="0.75" transform="rotate(-180 4.71533 59.8396)" fill="#440295"/>
<circle cx="24.4121" cy="59.8396" r="0.75" transform="rotate(-180 24.4121 59.8396)" fill="#440295"/>
<circle cx="44.1084" cy="59.8396" r="0.75" transform="rotate(-180 44.1084 59.8396)" fill="#440295"/>
<circle cx="63.8052" cy="59.8396" r="0.75" transform="rotate(-180 63.8052 59.8396)" fill="#440295"/>
<circle cx="83.5015" cy="59.8396" r="0.75" transform="rotate(-180 83.5015 59.8396)" fill="#440295"/>
<circle cx="103.198" cy="59.8396" r="0.75" transform="rotate(-180 103.198 59.8396)" fill="#440295"/>
<circle cx="122.895" cy="59.8396" r="0.75" transform="rotate(-180 122.895 59.8396)" fill="#440295"/>
<circle cx="142.591" cy="59.8396" r="0.75" transform="rotate(-180 142.591 59.8396)" fill="#440295"/>
<circle cx="4.71533" cy="79.5361" r="0.75" transform="rotate(-180 4.71533 79.5361)" fill="#440295"/>
<circle cx="24.4121" cy="79.5361" r="0.75" transform="rotate(-180 24.4121 79.5361)" fill="#440295"/>
<circle cx="44.1084" cy="79.5361" r="0.75" transform="rotate(-180 44.1084 79.5361)" fill="#440295"/>
<circle cx="63.8052" cy="79.5361" r="0.75" transform="rotate(-180 63.8052 79.5361)" fill="#440295"/>
<circle cx="83.5015" cy="79.5361" r="0.75" transform="rotate(-180 83.5015 79.5361)" fill="#440295"/>
<circle cx="103.198" cy="79.5361" r="0.75" transform="rotate(-180 103.198 79.5361)" fill="#440295"/>
<circle cx="122.895" cy="79.5361" r="0.75" transform="rotate(-180 122.895 79.5361)" fill="#440295"/>
<circle cx="142.591" cy="79.5361" r="0.75" transform="rotate(-180 142.591 79.5361)" fill="#440295"/>
<circle cx="4.71533" cy="99.2328" r="0.75" transform="rotate(-180 4.71533 99.2328)" fill="#440295"/>
<circle cx="24.4121" cy="99.2328" r="0.75" transform="rotate(-180 24.4121 99.2328)" fill="#440295"/>
<circle cx="44.1084" cy="99.2328" r="0.75" transform="rotate(-180 44.1084 99.2328)" fill="#440295"/>
<circle cx="63.8052" cy="99.2328" r="0.75" transform="rotate(-180 63.8052 99.2328)" fill="#440295"/>
<circle cx="83.5015" cy="99.2328" r="0.75" transform="rotate(-180 83.5015 99.2328)" fill="#440295"/>
<circle cx="103.198" cy="99.2328" r="0.75" transform="rotate(-180 103.198 99.2328)" fill="#440295"/>
<circle cx="122.895" cy="99.2328" r="0.75" transform="rotate(-180 122.895 99.2328)" fill="#440295"/>
<circle cx="142.591" cy="99.2328" r="0.75" transform="rotate(-180 142.591 99.2328)" fill="#440295"/>
<circle cx="4.71533" cy="118.929" r="0.75" transform="rotate(-180 4.71533 118.929)" fill="#440295"/>
<circle cx="24.4121" cy="118.929" r="0.75" transform="rotate(-180 24.4121 118.929)" fill="#440295"/>
<circle cx="44.1084" cy="118.929" r="0.75" transform="rotate(-180 44.1084 118.929)" fill="#440295"/>
<circle cx="63.8052" cy="118.929" r="0.75" transform="rotate(-180 63.8052 118.929)" fill="#440295"/>
<circle cx="83.5015" cy="118.929" r="0.75" transform="rotate(-180 83.5015 118.929)" fill="#440295"/>
<circle cx="103.198" cy="118.929" r="0.75" transform="rotate(-180 103.198 118.929)" fill="#440295"/>
<circle cx="122.895" cy="118.929" r="0.75" transform="rotate(-180 122.895 118.929)" fill="#440295"/>
<circle cx="142.591" cy="118.929" r="0.75" transform="rotate(-180 142.591 118.929)" fill="#440295"/>
<circle cx="4.71533" cy="138.626" r="0.75" transform="rotate(-180 4.71533 138.626)" fill="#440295"/>
<circle cx="24.4121" cy="138.626" r="0.75" transform="rotate(-180 24.4121 138.626)" fill="#440295"/>
<circle cx="44.1084" cy="138.626" r="0.75" transform="rotate(-180 44.1084 138.626)" fill="#440295"/>
<circle cx="63.8052" cy="138.626" r="0.75" transform="rotate(-180 63.8052 138.626)" fill="#440295"/>
<circle cx="83.5015" cy="138.626" r="0.75" transform="rotate(-180 83.5015 138.626)" fill="#440295"/>
<circle cx="103.198" cy="138.626" r="0.75" transform="rotate(-180 103.198 138.626)" fill="#440295"/>
<circle cx="122.895" cy="138.626" r="0.75" transform="rotate(-180 122.895 138.626)" fill="#440295"/>
<circle cx="142.591" cy="138.626" r="0.75" transform="rotate(-180 142.591 138.626)" fill="#440295"/>
<circle cx="4.71533" cy="158.322" r="0.75" transform="rotate(-180 4.71533 158.322)" fill="#440295"/>
<circle cx="24.4121" cy="158.322" r="0.75" transform="rotate(-180 24.4121 158.322)" fill="#440295"/>
<circle cx="44.1084" cy="158.322" r="0.75" transform="rotate(-180 44.1084 158.322)" fill="#440295"/>
<circle cx="63.8052" cy="158.322" r="0.75" transform="rotate(-180 63.8052 158.322)" fill="#440295"/>
<circle cx="83.5015" cy="158.322" r="0.75" transform="rotate(-180 83.5015 158.322)" fill="#440295"/>
<circle cx="103.198" cy="158.322" r="0.75" transform="rotate(-180 103.198 158.322)" fill="#440295"/>
<circle cx="122.895" cy="158.322" r="0.75" transform="rotate(-180 122.895 158.322)" fill="#440295"/>
<circle cx="142.591" cy="158.322" r="0.75" transform="rotate(-180 142.591 158.322)" fill="#440295"/>
<circle cx="4.71533" cy="178.019" r="0.75" transform="rotate(-180 4.71533 178.019)" fill="#440295"/>
<circle cx="24.4121" cy="178.019" r="0.75" transform="rotate(-180 24.4121 178.019)" fill="#440295"/>
<circle cx="44.1084" cy="178.019" r="0.75" transform="rotate(-180 44.1084 178.019)" fill="#440295"/>
<circle cx="63.8052" cy="178.019" r="0.75" transform="rotate(-180 63.8052 178.019)" fill="#440295"/>
<circle cx="83.5015" cy="178.019" r="0.75" transform="rotate(-180 83.5015 178.019)" fill="#440295"/>
<circle cx="103.198" cy="178.019" r="0.75" transform="rotate(-180 103.198 178.019)" fill="#440295"/>
<circle cx="122.895" cy="178.019" r="0.75" transform="rotate(-180 122.895 178.019)" fill="#440295"/>
<circle cx="142.591" cy="178.019" r="0.75" transform="rotate(-180 142.591 178.019)" fill="#440295"/>
<circle cx="4.71533" cy="197.715" r="0.75" transform="rotate(-180 4.71533 197.715)" fill="#440295"/>
<circle cx="24.4121" cy="197.715" r="0.75" transform="rotate(-180 24.4121 197.715)" fill="#440295"/>
<circle cx="44.1084" cy="197.715" r="0.75" transform="rotate(-180 44.1084 197.715)" fill="#440295"/>
<circle cx="63.8052" cy="197.715" r="0.75" transform="rotate(-180 63.8052 197.715)" fill="#440295"/>
<circle cx="83.5015" cy="197.715" r="0.75" transform="rotate(-180 83.5015 197.715)" fill="#440295"/>
<circle cx="103.198" cy="197.715" r="0.75" transform="rotate(-180 103.198 197.715)" fill="#440295"/>
<circle cx="122.895" cy="197.715" r="0.75" transform="rotate(-180 122.895 197.715)" fill="#440295"/>
<circle cx="142.591" cy="197.715" r="0.75" transform="rotate(-180 142.591 197.715)" fill="#440295"/>
<circle cx="4.71533" cy="217.412" r="0.75" transform="rotate(-180 4.71533 217.412)" fill="#440295"/>
<circle cx="24.4121" cy="217.412" r="0.75" transform="rotate(-180 24.4121 217.412)" fill="#440295"/>
<circle cx="44.1084" cy="217.412" r="0.75" transform="rotate(-180 44.1084 217.412)" fill="#440295"/>
<circle cx="63.8052" cy="217.412" r="0.75" transform="rotate(-180 63.8052 217.412)" fill="#440295"/>
<circle cx="83.5015" cy="217.412" r="0.75" transform="rotate(-180 83.5015 217.412)" fill="#440295"/>
<circle cx="103.198" cy="217.412" r="0.75" transform="rotate(-180 103.198 217.412)" fill="#440295"/>
<circle cx="122.895" cy="217.412" r="0.75" transform="rotate(-180 122.895 217.412)" fill="#440295"/>
<circle cx="142.591" cy="217.412" r="0.75" transform="rotate(-180 142.591 217.412)" fill="#440295"/>
<circle cx="4.71533" cy="237.109" r="0.75" transform="rotate(-180 4.71533 237.109)" fill="#440295"/>
<circle cx="24.4121" cy="237.109" r="0.75" transform="rotate(-180 24.4121 237.109)" fill="#440295"/>
<circle cx="44.1084" cy="237.109" r="0.75" transform="rotate(-180 44.1084 237.109)" fill="#440295"/>
<circle cx="63.8052" cy="237.109" r="0.75" transform="rotate(-180 63.8052 237.109)" fill="#440295"/>
<circle cx="83.5015" cy="237.109" r="0.75" transform="rotate(-180 83.5015 237.109)" fill="#440295"/>
<circle cx="103.198" cy="237.109" r="0.75" transform="rotate(-180 103.198 237.109)" fill="#440295"/>
<circle cx="122.895" cy="237.109" r="0.75" transform="rotate(-180 122.895 237.109)" fill="#440295"/>
<circle cx="142.591" cy="237.109" r="0.75" transform="rotate(-180 142.591 237.109)" fill="#440295"/>
<circle cx="4.71533" cy="256.805" r="0.75" transform="rotate(-180 4.71533 256.805)" fill="#440295"/>
<circle cx="24.4121" cy="256.805" r="0.75" transform="rotate(-180 24.4121 256.805)" fill="#440295"/>
<circle cx="44.1084" cy="256.805" r="0.75" transform="rotate(-180 44.1084 256.805)" fill="#440295"/>
<circle cx="63.8052" cy="256.805" r="0.75" transform="rotate(-180 63.8052 256.805)" fill="#440295"/>
<circle cx="83.5015" cy="256.805" r="0.75" transform="rotate(-180 83.5015 256.805)" fill="#440295"/>
<circle cx="103.198" cy="256.805" r="0.75" transform="rotate(-180 103.198 256.805)" fill="#440295"/>
<circle cx="122.895" cy="256.805" r="0.75" transform="rotate(-180 122.895 256.805)" fill="#440295"/>
<circle cx="142.591" cy="256.805" r="0.75" transform="rotate(-180 142.591 256.805)" fill="#440295"/>
<circle cx="4.71533" cy="276.502" r="0.75" transform="rotate(-180 4.71533 276.502)" fill="#440295"/>
<circle cx="24.4121" cy="276.502" r="0.75" transform="rotate(-180 24.4121 276.502)" fill="#440295"/>
<circle cx="44.1084" cy="276.502" r="0.75" transform="rotate(-180 44.1084 276.502)" fill="#440295"/>
<circle cx="63.8052" cy="276.502" r="0.75" transform="rotate(-180 63.8052 276.502)" fill="#440295"/>
<circle cx="83.5015" cy="276.502" r="0.75" transform="rotate(-180 83.5015 276.502)" fill="#440295"/>
<circle cx="103.198" cy="276.502" r="0.75" transform="rotate(-180 103.198 276.502)" fill="#440295"/>
<circle cx="122.895" cy="276.502" r="0.75" transform="rotate(-180 122.895 276.502)" fill="#440295"/>
<circle cx="142.591" cy="276.502" r="0.75" transform="rotate(-180 142.591 276.502)" fill="#440295"/>
<circle cx="4.71533" cy="296.198" r="0.75" transform="rotate(-180 4.71533 296.198)" fill="#440295"/>
<circle cx="24.4121" cy="296.198" r="0.75" transform="rotate(-180 24.4121 296.198)" fill="#440295"/>
<circle cx="44.1084" cy="296.198" r="0.75" transform="rotate(-180 44.1084 296.198)" fill="#440295"/>
<circle cx="63.8052" cy="296.198" r="0.75" transform="rotate(-180 63.8052 296.198)" fill="#440295"/>
<circle cx="83.5015" cy="296.198" r="0.75" transform="rotate(-180 83.5015 296.198)" fill="#440295"/>
<circle cx="103.198" cy="296.198" r="0.75" transform="rotate(-180 103.198 296.198)" fill="#440295"/>
<circle cx="122.895" cy="296.198" r="0.75" transform="rotate(-180 122.895 296.198)" fill="#440295"/>
<circle cx="142.591" cy="296.198" r="0.75" transform="rotate(-180 142.591 296.198)" fill="#440295"/>
<circle cx="4.71533" cy="315.895" r="0.75" transform="rotate(-180 4.71533 315.895)" fill="#440295"/>
<circle cx="24.4121" cy="315.895" r="0.75" transform="rotate(-180 24.4121 315.895)" fill="#440295"/>
<circle cx="44.1084" cy="315.895" r="0.75" transform="rotate(-180 44.1084 315.895)" fill="#440295"/>
<circle cx="63.8052" cy="315.895" r="0.75" transform="rotate(-180 63.8052 315.895)" fill="#440295"/>
<circle cx="83.5015" cy="315.895" r="0.75" transform="rotate(-180 83.5015 315.895)" fill="#440295"/>
<circle cx="103.198" cy="315.895" r="0.75" transform="rotate(-180 103.198 315.895)" fill="#440295"/>
<circle cx="122.895" cy="315.895" r="0.75" transform="rotate(-180 122.895 315.895)" fill="#440295"/>
<circle cx="142.591" cy="315.895" r="0.75" transform="rotate(-180 142.591 315.895)" fill="#440295"/>
<circle cx="4.71533" cy="335.591" r="0.75" transform="rotate(-180 4.71533 335.591)" fill="#440295"/>
<circle cx="24.4121" cy="335.591" r="0.75" transform="rotate(-180 24.4121 335.591)" fill="#440295"/>
<circle cx="44.1084" cy="335.591" r="0.75" transform="rotate(-180 44.1084 335.591)" fill="#440295"/>
<circle cx="63.8052" cy="335.591" r="0.75" transform="rotate(-180 63.8052 335.591)" fill="#440295"/>
<circle cx="83.5015" cy="335.591" r="0.75" transform="rotate(-180 83.5015 335.591)" fill="#440295"/>
<circle cx="103.198" cy="335.591" r="0.75" transform="rotate(-180 103.198 335.591)" fill="#440295"/>
<circle cx="122.895" cy="335.591" r="0.75" transform="rotate(-180 122.895 335.591)" fill="#440295"/>
<circle cx="142.591" cy="335.591" r="0.75" transform="rotate(-180 142.591 335.591)" fill="#440295"/>
<circle cx="1608.92" cy="0.921117" r="0.57931" transform="rotate(-180 1608.92 0.921117)" fill="#440295"/>
<circle cx="1628.62" cy="0.921117" r="0.57931" transform="rotate(-180 1628.62 0.921117)" fill="#440295"/>
<circle cx="1648.31" cy="0.921117" r="0.57931" transform="rotate(-180 1648.31 0.921117)" fill="#440295"/>
<circle cx="1668.01" cy="0.921117" r="0.57931" transform="rotate(-180 1668.01 0.921117)" fill="#440295"/>
<circle cx="1687.71" cy="0.921117" r="0.57931" transform="rotate(-180 1687.71 0.921117)" fill="#440295"/>
<circle cx="1707.4" cy="0.921117" r="0.57931" transform="rotate(-180 1707.4 0.921117)" fill="#440295"/>
<circle cx="1727.1" cy="0.921117" r="0.57931" transform="rotate(-180 1727.1 0.921117)" fill="#440295"/>
<circle cx="1746.8" cy="0.921117" r="0.57931" transform="rotate(-180 1746.8 0.921117)" fill="#440295"/>
<circle cx="1766.49" cy="0.921117" r="0.57931" transform="rotate(-180 1766.49 0.921117)" fill="#440295"/>
<circle cx="1786.19" cy="0.921117" r="0.57931" transform="rotate(-180 1786.19 0.921117)" fill="#440295"/>
<circle cx="1608.92" cy="0.921117" r="0.57931" transform="rotate(-180 1608.92 0.921117)" fill="#440295"/>
<circle cx="1628.62" cy="0.921117" r="0.57931" transform="rotate(-180 1628.62 0.921117)" fill="#440295"/>
<circle cx="1648.31" cy="0.921117" r="0.57931" transform="rotate(-180 1648.31 0.921117)" fill="#440295"/>
<circle cx="1668.01" cy="0.921117" r="0.57931" transform="rotate(-180 1668.01 0.921117)" fill="#440295"/>
<circle cx="1687.71" cy="0.921117" r="0.57931" transform="rotate(-180 1687.71 0.921117)" fill="#440295"/>
<circle cx="1707.4" cy="0.921117" r="0.57931" transform="rotate(-180 1707.4 0.921117)" fill="#440295"/>
<circle cx="1727.1" cy="0.921117" r="0.57931" transform="rotate(-180 1727.1 0.921117)" fill="#440295"/>
<circle cx="1746.8" cy="0.921117" r="0.57931" transform="rotate(-180 1746.8 0.921117)" fill="#440295"/>
<circle cx="1766.49" cy="0.921117" r="0.57931" transform="rotate(-180 1766.49 0.921117)" fill="#440295"/>
<circle cx="1786.19" cy="0.921117" r="0.57931" transform="rotate(-180 1786.19 0.921117)" fill="#440295"/>
<circle cx="1608.92" cy="20.6177" r="0.57931" transform="rotate(-180 1608.92 20.6177)" fill="#440295"/>
<circle cx="1628.62" cy="20.6177" r="0.57931" transform="rotate(-180 1628.62 20.6177)" fill="#440295"/>
<circle cx="1648.31" cy="20.6177" r="0.57931" transform="rotate(-180 1648.31 20.6177)" fill="#440295"/>
<circle cx="1668.01" cy="20.6177" r="0.57931" transform="rotate(-180 1668.01 20.6177)" fill="#440295"/>
<circle cx="1687.71" cy="20.6177" r="0.57931" transform="rotate(-180 1687.71 20.6177)" fill="#440295"/>
<circle cx="1707.4" cy="20.6177" r="0.57931" transform="rotate(-180 1707.4 20.6177)" fill="#440295"/>
<circle cx="1727.1" cy="20.6177" r="0.57931" transform="rotate(-180 1727.1 20.6177)" fill="#440295"/>
<circle cx="1746.8" cy="20.6177" r="0.57931" transform="rotate(-180 1746.8 20.6177)" fill="#440295"/>
<circle cx="1766.49" cy="20.6177" r="0.57931" transform="rotate(-180 1766.49 20.6177)" fill="#440295"/>
<circle cx="1786.19" cy="20.6177" r="0.57931" transform="rotate(-180 1786.19 20.6177)" fill="#440295"/>
<circle cx="1608.92" cy="40.3142" r="0.57931" transform="rotate(-180 1608.92 40.3142)" fill="#440295"/>
<circle cx="1628.62" cy="40.3142" r="0.57931" transform="rotate(-180 1628.62 40.3142)" fill="#440295"/>
<circle cx="1648.31" cy="40.3142" r="0.57931" transform="rotate(-180 1648.31 40.3142)" fill="#440295"/>
<circle cx="1668.01" cy="40.3142" r="0.57931" transform="rotate(-180 1668.01 40.3142)" fill="#440295"/>
<circle cx="1687.71" cy="40.3142" r="0.57931" transform="rotate(-180 1687.71 40.3142)" fill="#440295"/>
<circle cx="1707.4" cy="40.3142" r="0.57931" transform="rotate(-180 1707.4 40.3142)" fill="#440295"/>
<circle cx="1727.1" cy="40.3142" r="0.57931" transform="rotate(-180 1727.1 40.3142)" fill="#440295"/>
<circle cx="1746.8" cy="40.3142" r="0.57931" transform="rotate(-180 1746.8 40.3142)" fill="#440295"/>
<circle cx="1766.49" cy="40.3142" r="0.57931" transform="rotate(-180 1766.49 40.3142)" fill="#440295"/>
<circle cx="1786.19" cy="40.3142" r="0.57931" transform="rotate(-180 1786.19 40.3142)" fill="#440295"/>
<circle cx="1608.92" cy="60.0108" r="0.57931" transform="rotate(-180 1608.92 60.0108)" fill="#440295"/>
<circle cx="1628.62" cy="60.0108" r="0.57931" transform="rotate(-180 1628.62 60.0108)" fill="#440295"/>
<circle cx="1648.31" cy="60.0108" r="0.57931" transform="rotate(-180 1648.31 60.0108)" fill="#440295"/>
<circle cx="1668.01" cy="60.0108" r="0.57931" transform="rotate(-180 1668.01 60.0108)" fill="#440295"/>
<circle cx="1687.71" cy="60.0108" r="0.57931" transform="rotate(-180 1687.71 60.0108)" fill="#440295"/>
<circle cx="1707.4" cy="60.0108" r="0.57931" transform="rotate(-180 1707.4 60.0108)" fill="#440295"/>
<circle cx="1727.1" cy="60.0108" r="0.57931" transform="rotate(-180 1727.1 60.0108)" fill="#440295"/>
<circle cx="1746.8" cy="60.0108" r="0.57931" transform="rotate(-180 1746.8 60.0108)" fill="#440295"/>
<circle cx="1766.49" cy="60.0108" r="0.57931" transform="rotate(-180 1766.49 60.0108)" fill="#440295"/>
<circle cx="1786.19" cy="60.0108" r="0.57931" transform="rotate(-180 1786.19 60.0108)" fill="#440295"/>
<circle cx="1608.92" cy="79.7074" r="0.57931" transform="rotate(-180 1608.92 79.7074)" fill="#440295"/>
<circle cx="1628.62" cy="79.7074" r="0.57931" transform="rotate(-180 1628.62 79.7074)" fill="#440295"/>
<circle cx="1648.31" cy="79.7074" r="0.57931" transform="rotate(-180 1648.31 79.7074)" fill="#440295"/>
<circle cx="1668.01" cy="79.7074" r="0.57931" transform="rotate(-180 1668.01 79.7074)" fill="#440295"/>
<circle cx="1687.71" cy="79.7074" r="0.57931" transform="rotate(-180 1687.71 79.7074)" fill="#440295"/>
<circle cx="1707.4" cy="79.7074" r="0.57931" transform="rotate(-180 1707.4 79.7074)" fill="#440295"/>
<circle cx="1727.1" cy="79.7074" r="0.57931" transform="rotate(-180 1727.1 79.7074)" fill="#440295"/>
<circle cx="1746.8" cy="79.7074" r="0.57931" transform="rotate(-180 1746.8 79.7074)" fill="#440295"/>
<circle cx="1766.49" cy="79.7074" r="0.57931" transform="rotate(-180 1766.49 79.7074)" fill="#440295"/>
<circle cx="1786.19" cy="79.7074" r="0.57931" transform="rotate(-180 1786.19 79.7074)" fill="#440295"/>
<circle cx="1608.92" cy="99.404" r="0.57931" transform="rotate(-180 1608.92 99.404)" fill="#440295"/>
<circle cx="1628.62" cy="99.404" r="0.57931" transform="rotate(-180 1628.62 99.404)" fill="#440295"/>
<circle cx="1648.31" cy="99.404" r="0.57931" transform="rotate(-180 1648.31 99.404)" fill="#440295"/>
<circle cx="1668.01" cy="99.404" r="0.57931" transform="rotate(-180 1668.01 99.404)" fill="#440295"/>
<circle cx="1687.71" cy="99.404" r="0.57931" transform="rotate(-180 1687.71 99.404)" fill="#440295"/>
<circle cx="1707.4" cy="99.404" r="0.57931" transform="rotate(-180 1707.4 99.404)" fill="#440295"/>
<circle cx="1727.1" cy="99.404" r="0.57931" transform="rotate(-180 1727.1 99.404)" fill="#440295"/>
<circle cx="1746.8" cy="99.404" r="0.57931" transform="rotate(-180 1746.8 99.404)" fill="#440295"/>
<circle cx="1766.49" cy="99.404" r="0.57931" transform="rotate(-180 1766.49 99.404)" fill="#440295"/>
<circle cx="1786.19" cy="99.404" r="0.57931" transform="rotate(-180 1786.19 99.404)" fill="#440295"/>
<circle cx="1608.92" cy="119.101" r="0.57931" transform="rotate(-180 1608.92 119.101)" fill="#440295"/>
<circle cx="1628.62" cy="119.101" r="0.57931" transform="rotate(-180 1628.62 119.101)" fill="#440295"/>
<circle cx="1648.31" cy="119.101" r="0.57931" transform="rotate(-180 1648.31 119.101)" fill="#440295"/>
<circle cx="1668.01" cy="119.101" r="0.57931" transform="rotate(-180 1668.01 119.101)" fill="#440295"/>
<circle cx="1687.71" cy="119.101" r="0.57931" transform="rotate(-180 1687.71 119.101)" fill="#440295"/>
<circle cx="1707.4" cy="119.101" r="0.57931" transform="rotate(-180 1707.4 119.101)" fill="#440295"/>
<circle cx="1727.1" cy="119.101" r="0.57931" transform="rotate(-180 1727.1 119.101)" fill="#440295"/>
<circle cx="1746.8" cy="119.101" r="0.57931" transform="rotate(-180 1746.8 119.101)" fill="#440295"/>
<circle cx="1766.49" cy="119.101" r="0.57931" transform="rotate(-180 1766.49 119.101)" fill="#440295"/>
<circle cx="1786.19" cy="119.101" r="0.57931" transform="rotate(-180 1786.19 119.101)" fill="#440295"/>
<circle cx="1608.92" cy="138.797" r="0.57931" transform="rotate(-180 1608.92 138.797)" fill="#440295"/>
<circle cx="1628.62" cy="138.797" r="0.57931" transform="rotate(-180 1628.62 138.797)" fill="#440295"/>
<circle cx="1648.31" cy="138.797" r="0.57931" transform="rotate(-180 1648.31 138.797)" fill="#440295"/>
<circle cx="1668.01" cy="138.797" r="0.57931" transform="rotate(-180 1668.01 138.797)" fill="#440295"/>
<circle cx="1687.71" cy="138.797" r="0.57931" transform="rotate(-180 1687.71 138.797)" fill="#440295"/>
<circle cx="1707.4" cy="138.797" r="0.57931" transform="rotate(-180 1707.4 138.797)" fill="#440295"/>
<circle cx="1727.1" cy="138.797" r="0.57931" transform="rotate(-180 1727.1 138.797)" fill="#440295"/>
<circle cx="1746.8" cy="138.797" r="0.57931" transform="rotate(-180 1746.8 138.797)" fill="#440295"/>
<circle cx="1766.49" cy="138.797" r="0.57931" transform="rotate(-180 1766.49 138.797)" fill="#440295"/>
<circle cx="1786.19" cy="138.797" r="0.57931" transform="rotate(-180 1786.19 138.797)" fill="#440295"/>
<circle cx="1608.92" cy="158.493" r="0.57931" transform="rotate(-180 1608.92 158.493)" fill="#440295"/>
<circle cx="1628.62" cy="158.493" r="0.57931" transform="rotate(-180 1628.62 158.493)" fill="#440295"/>
<circle cx="1648.31" cy="158.493" r="0.57931" transform="rotate(-180 1648.31 158.493)" fill="#440295"/>
<circle cx="1668.01" cy="158.493" r="0.57931" transform="rotate(-180 1668.01 158.493)" fill="#440295"/>
<circle cx="1687.71" cy="158.493" r="0.57931" transform="rotate(-180 1687.71 158.493)" fill="#440295"/>
<circle cx="1707.4" cy="158.493" r="0.57931" transform="rotate(-180 1707.4 158.493)" fill="#440295"/>
<circle cx="1727.1" cy="158.493" r="0.57931" transform="rotate(-180 1727.1 158.493)" fill="#440295"/>
<circle cx="1746.8" cy="158.493" r="0.57931" transform="rotate(-180 1746.8 158.493)" fill="#440295"/>
<circle cx="1766.49" cy="158.493" r="0.57931" transform="rotate(-180 1766.49 158.493)" fill="#440295"/>
<circle cx="1786.19" cy="158.493" r="0.57931" transform="rotate(-180 1786.19 158.493)" fill="#440295"/>
<circle cx="1608.92" cy="178.19" r="0.57931" transform="rotate(-180 1608.92 178.19)" fill="#440295"/>
<circle cx="1628.62" cy="178.19" r="0.57931" transform="rotate(-180 1628.62 178.19)" fill="#440295"/>
<circle cx="1648.31" cy="178.19" r="0.57931" transform="rotate(-180 1648.31 178.19)" fill="#440295"/>
<circle cx="1668.01" cy="178.19" r="0.57931" transform="rotate(-180 1668.01 178.19)" fill="#440295"/>
<circle cx="1687.71" cy="178.19" r="0.57931" transform="rotate(-180 1687.71 178.19)" fill="#440295"/>
<circle cx="1707.4" cy="178.19" r="0.57931" transform="rotate(-180 1707.4 178.19)" fill="#440295"/>
<circle cx="1727.1" cy="178.19" r="0.57931" transform="rotate(-180 1727.1 178.19)" fill="#440295"/>
<circle cx="1746.8" cy="178.19" r="0.57931" transform="rotate(-180 1746.8 178.19)" fill="#440295"/>
<circle cx="1766.49" cy="178.19" r="0.57931" transform="rotate(-180 1766.49 178.19)" fill="#440295"/>
<circle cx="1786.19" cy="178.19" r="0.57931" transform="rotate(-180 1786.19 178.19)" fill="#440295"/>
<circle cx="1608.92" cy="197.887" r="0.57931" transform="rotate(-180 1608.92 197.887)" fill="#440295"/>
<circle cx="1628.62" cy="197.887" r="0.57931" transform="rotate(-180 1628.62 197.887)" fill="#440295"/>
<circle cx="1648.31" cy="197.887" r="0.57931" transform="rotate(-180 1648.31 197.887)" fill="#440295"/>
<circle cx="1668.01" cy="197.887" r="0.57931" transform="rotate(-180 1668.01 197.887)" fill="#440295"/>
<circle cx="1687.71" cy="197.887" r="0.57931" transform="rotate(-180 1687.71 197.887)" fill="#440295"/>
<circle cx="1707.4" cy="197.887" r="0.57931" transform="rotate(-180 1707.4 197.887)" fill="#440295"/>
<circle cx="1727.1" cy="197.887" r="0.57931" transform="rotate(-180 1727.1 197.887)" fill="#440295"/>
<circle cx="1746.8" cy="197.887" r="0.57931" transform="rotate(-180 1746.8 197.887)" fill="#440295"/>
<circle cx="1766.49" cy="197.887" r="0.57931" transform="rotate(-180 1766.49 197.887)" fill="#440295"/>
<circle cx="1786.19" cy="197.887" r="0.57931" transform="rotate(-180 1786.19 197.887)" fill="#440295"/>
<circle cx="1608.92" cy="217.583" r="0.57931" transform="rotate(-180 1608.92 217.583)" fill="#440295"/>
<circle cx="1628.62" cy="217.583" r="0.57931" transform="rotate(-180 1628.62 217.583)" fill="#440295"/>
<circle cx="1648.31" cy="217.583" r="0.57931" transform="rotate(-180 1648.31 217.583)" fill="#440295"/>
<circle cx="1668.01" cy="217.583" r="0.57931" transform="rotate(-180 1668.01 217.583)" fill="#440295"/>
<circle cx="1687.71" cy="217.583" r="0.57931" transform="rotate(-180 1687.71 217.583)" fill="#440295"/>
<circle cx="1707.4" cy="217.583" r="0.57931" transform="rotate(-180 1707.4 217.583)" fill="#440295"/>
<circle cx="1727.1" cy="217.583" r="0.57931" transform="rotate(-180 1727.1 217.583)" fill="#440295"/>
<circle cx="1746.8" cy="217.583" r="0.57931" transform="rotate(-180 1746.8 217.583)" fill="#440295"/>
<circle cx="1766.49" cy="217.583" r="0.57931" transform="rotate(-180 1766.49 217.583)" fill="#440295"/>
<circle cx="1786.19" cy="217.583" r="0.57931" transform="rotate(-180 1786.19 217.583)" fill="#440295"/>
<circle cx="1608.92" cy="237.28" r="0.57931" transform="rotate(-180 1608.92 237.28)" fill="#440295"/>
<circle cx="1628.62" cy="237.28" r="0.57931" transform="rotate(-180 1628.62 237.28)" fill="#440295"/>
<circle cx="1648.31" cy="237.28" r="0.57931" transform="rotate(-180 1648.31 237.28)" fill="#440295"/>
<circle cx="1668.01" cy="237.28" r="0.57931" transform="rotate(-180 1668.01 237.28)" fill="#440295"/>
<circle cx="1687.71" cy="237.28" r="0.57931" transform="rotate(-180 1687.71 237.28)" fill="#440295"/>
<circle cx="1707.4" cy="237.28" r="0.57931" transform="rotate(-180 1707.4 237.28)" fill="#440295"/>
<circle cx="1727.1" cy="237.28" r="0.57931" transform="rotate(-180 1727.1 237.28)" fill="#440295"/>
<circle cx="1746.8" cy="237.28" r="0.57931" transform="rotate(-180 1746.8 237.28)" fill="#440295"/>
<circle cx="1766.49" cy="237.28" r="0.57931" transform="rotate(-180 1766.49 237.28)" fill="#440295"/>
<circle cx="1786.19" cy="237.28" r="0.57931" transform="rotate(-180 1786.19 237.28)" fill="#440295"/>
<circle cx="1608.92" cy="256.976" r="0.57931" transform="rotate(-180 1608.92 256.976)" fill="#440295"/>
<circle cx="1628.62" cy="256.976" r="0.57931" transform="rotate(-180 1628.62 256.976)" fill="#440295"/>
<circle cx="1648.31" cy="256.976" r="0.57931" transform="rotate(-180 1648.31 256.976)" fill="#440295"/>
<circle cx="1668.01" cy="256.976" r="0.57931" transform="rotate(-180 1668.01 256.976)" fill="#440295"/>
<circle cx="1687.71" cy="256.976" r="0.57931" transform="rotate(-180 1687.71 256.976)" fill="#440295"/>
<circle cx="1707.4" cy="256.976" r="0.57931" transform="rotate(-180 1707.4 256.976)" fill="#440295"/>
<circle cx="1727.1" cy="256.976" r="0.57931" transform="rotate(-180 1727.1 256.976)" fill="#440295"/>
<circle cx="1746.8" cy="256.976" r="0.57931" transform="rotate(-180 1746.8 256.976)" fill="#440295"/>
<circle cx="1766.49" cy="256.976" r="0.57931" transform="rotate(-180 1766.49 256.976)" fill="#440295"/>
<circle cx="1786.19" cy="256.976" r="0.57931" transform="rotate(-180 1786.19 256.976)" fill="#440295"/>
<circle cx="1608.92" cy="276.673" r="0.57931" transform="rotate(-180 1608.92 276.673)" fill="#440295"/>
<circle cx="1628.62" cy="276.673" r="0.57931" transform="rotate(-180 1628.62 276.673)" fill="#440295"/>
<circle cx="1648.31" cy="276.673" r="0.57931" transform="rotate(-180 1648.31 276.673)" fill="#440295"/>
<circle cx="1668.01" cy="276.673" r="0.57931" transform="rotate(-180 1668.01 276.673)" fill="#440295"/>
<circle cx="1687.71" cy="276.673" r="0.57931" transform="rotate(-180 1687.71 276.673)" fill="#440295"/>
<circle cx="1707.4" cy="276.673" r="0.57931" transform="rotate(-180 1707.4 276.673)" fill="#440295"/>
<circle cx="1727.1" cy="276.673" r="0.57931" transform="rotate(-180 1727.1 276.673)" fill="#440295"/>
<circle cx="1746.8" cy="276.673" r="0.57931" transform="rotate(-180 1746.8 276.673)" fill="#440295"/>
<circle cx="1766.49" cy="276.673" r="0.57931" transform="rotate(-180 1766.49 276.673)" fill="#440295"/>
<circle cx="1786.19" cy="276.673" r="0.57931" transform="rotate(-180 1786.19 276.673)" fill="#440295"/>
<circle cx="1608.92" cy="296.369" r="0.57931" transform="rotate(-180 1608.92 296.369)" fill="#440295"/>
<circle cx="1628.62" cy="296.369" r="0.57931" transform="rotate(-180 1628.62 296.369)" fill="#440295"/>
<circle cx="1648.31" cy="296.369" r="0.57931" transform="rotate(-180 1648.31 296.369)" fill="#440295"/>
<circle cx="1668.01" cy="296.369" r="0.57931" transform="rotate(-180 1668.01 296.369)" fill="#440295"/>
<circle cx="1687.71" cy="296.369" r="0.57931" transform="rotate(-180 1687.71 296.369)" fill="#440295"/>
<circle cx="1707.4" cy="296.369" r="0.57931" transform="rotate(-180 1707.4 296.369)" fill="#440295"/>
<circle cx="1727.1" cy="296.369" r="0.57931" transform="rotate(-180 1727.1 296.369)" fill="#440295"/>
<circle cx="1746.8" cy="296.369" r="0.57931" transform="rotate(-180 1746.8 296.369)" fill="#440295"/>
<circle cx="1766.49" cy="296.369" r="0.57931" transform="rotate(-180 1766.49 296.369)" fill="#440295"/>
<circle cx="1786.19" cy="296.369" r="0.57931" transform="rotate(-180 1786.19 296.369)" fill="#440295"/>
<circle cx="1608.92" cy="316.066" r="0.57931" transform="rotate(-180 1608.92 316.066)" fill="#440295"/>
<circle cx="1628.62" cy="316.066" r="0.57931" transform="rotate(-180 1628.62 316.066)" fill="#440295"/>
<circle cx="1648.31" cy="316.066" r="0.57931" transform="rotate(-180 1648.31 316.066)" fill="#440295"/>
<circle cx="1668.01" cy="316.066" r="0.57931" transform="rotate(-180 1668.01 316.066)" fill="#440295"/>
<circle cx="1687.71" cy="316.066" r="0.57931" transform="rotate(-180 1687.71 316.066)" fill="#440295"/>
<circle cx="1707.4" cy="316.066" r="0.57931" transform="rotate(-180 1707.4 316.066)" fill="#440295"/>
<circle cx="1727.1" cy="316.066" r="0.57931" transform="rotate(-180 1727.1 316.066)" fill="#440295"/>
<circle cx="1746.8" cy="316.066" r="0.57931" transform="rotate(-180 1746.8 316.066)" fill="#440295"/>
<circle cx="1766.49" cy="316.066" r="0.57931" transform="rotate(-180 1766.49 316.066)" fill="#440295"/>
<circle cx="1786.19" cy="316.066" r="0.57931" transform="rotate(-180 1786.19 316.066)" fill="#440295"/>
<circle cx="1608.92" cy="335.763" r="0.57931" transform="rotate(-180 1608.92 335.763)" fill="#440295"/>
<circle cx="1628.62" cy="335.763" r="0.57931" transform="rotate(-180 1628.62 335.763)" fill="#440295"/>
<circle cx="1648.31" cy="335.763" r="0.57931" transform="rotate(-180 1648.31 335.763)" fill="#440295"/>
<circle cx="1668.01" cy="335.763" r="0.57931" transform="rotate(-180 1668.01 335.763)" fill="#440295"/>
<circle cx="1687.71" cy="335.763" r="0.57931" transform="rotate(-180 1687.71 335.763)" fill="#440295"/>
<circle cx="1707.4" cy="335.763" r="0.57931" transform="rotate(-180 1707.4 335.763)" fill="#440295"/>
<circle cx="1727.1" cy="335.763" r="0.57931" transform="rotate(-180 1727.1 335.763)" fill="#440295"/>
<circle cx="1746.8" cy="335.763" r="0.57931" transform="rotate(-180 1746.8 335.763)" fill="#440295"/>
<circle cx="1766.49" cy="335.763" r="0.57931" transform="rotate(-180 1766.49 335.763)" fill="#440295"/>
<circle cx="1786.19" cy="335.763" r="0.57931" transform="rotate(-180 1786.19 335.763)" fill="#440295"/>
</svg>
