<svg width="24" height="24" viewBox="0 0 24 24" fill="none" xmlns="http://www.w3.org/2000/svg">
<path fill-rule="evenodd" clip-rule="evenodd" d="M5 3H19C20.1 3 21 3.9 21 5V19C21 20.1 20.1 21 19 21H5C3.9 21 3 20.1 3 19V5C3 3.9 3.9 3 5 3ZM8 17H13C13.55 17 14 16.55 14 16C14 15.45 13.55 15 13 15H8C7.45 15 7 15.45 7 16C7 16.55 7.45 17 8 17ZM16 13H8C7.45 13 7 12.55 7 12C7 11.45 7.45 11 8 11H16C16.55 11 17 11.45 17 12C17 12.55 16.55 13 16 13ZM8 9H16C16.55 9 17 8.55 17 8C17 7.45 16.55 7 16 7H8C7.45 7 7 7.45 7 8C7 8.55 7.45 9 8 9Z" fill="#0A060E"/>
</svg>
