<svg class="svg-civic-icon" width="20" height="2 0" viewBox="0 0 76 80" fill="#ffffff">
  <path d="M9.6 40c0-16.802 13.58-30.4 30.303-30.4 11.486 0 21.492 6.41 26.637 15.89a4.8 4.8 0 008.437-4.58C68.226 8.47 55.058 0 39.903 0 17.854 0 0 17.921 0 40s17.853 40 39.904 40c15.154 0 28.322-8.469 35.073-20.91a4.8 4.8 0 00-8.437-4.58C61.395 63.99 51.389 70.4 39.903 70.4 23.18 70.4 9.6 56.802 9.6 40z">
  </path>
  <path d="M47.2 35.2a7.182 7.182 0 01-2.4 5.367V52h-9.6V40.567a7.2 7.2 0 1112-5.367z"></path>
</svg>